<svg version="1.1" id="Layer_1" xmlns="http://www.w3.org/2000/svg" xmlns:xlink="http://www.w3.org/1999/xlink" x="0px" y="0px"
	 width="100%" viewBox="0 0 280 280" enable-background="new 0 0 280 280" xml:space="preserve">
<path fill="#FEFEFE" opacity="1.000000" stroke="none" 
	d="
M152.000000,281.000000 
	C101.333336,281.000000 51.166668,281.000000 1.000000,281.000000 
	C1.000000,187.666672 1.000000,94.333336 1.000000,1.000000 
	C94.333336,1.000000 187.666672,1.000000 281.000000,1.000000 
	C281.000000,94.333336 281.000000,187.666672 281.000000,281.000000 
	C238.166672,281.000000 195.333328,281.000000 152.000000,281.000000 
M150.203857,154.813309 
	C148.522125,157.209991 146.840378,159.606659 144.884140,162.588364 
	C144.373535,165.774475 145.492538,168.093002 148.509598,169.402954 
	C151.944901,170.894485 154.713135,169.806946 157.694717,166.966415 
	C160.911911,162.403442 159.908905,157.180893 160.090240,152.122711 
	C160.145401,150.583847 160.364639,148.849228 161.127304,147.574310 
	C163.638275,143.376846 166.833954,139.546570 168.980545,135.188110 
	C170.468781,132.166367 172.006470,131.420197 173.950699,132.104584 
	C173.950699,136.998566 173.465530,141.463684 174.074722,145.774124 
	C174.819717,151.045319 179.716431,152.618561 184.137772,149.721573 
	C185.035583,149.133301 186.722183,149.414703 187.931198,149.730881 
	C189.106094,150.038116 190.134644,150.904984 191.732208,151.874191 
	C194.189896,150.573761 196.647583,149.273315 199.637115,148.379318 
	C202.671539,152.997131 205.559143,150.884766 207.471542,148.899231 
	C210.294952,150.003510 212.528656,150.877151 214.019043,151.460068 
	C215.552063,145.005463 216.846344,139.556046 218.748138,133.570267 
	C218.990860,133.424423 219.221664,133.243866 219.483566,133.153778 
	C219.562546,133.126602 219.827408,133.340790 219.839279,133.460968 
	C220.229828,137.417282 220.482178,141.391388 221.010132,145.328674 
	C221.434570,148.493973 223.168076,150.039795 226.357697,149.002457 
	C227.311890,144.408905 228.217255,140.050400 229.122604,135.691879 
	C229.547775,135.743790 229.972946,135.795685 230.398117,135.847580 
	C230.769684,139.067093 230.497879,142.559875 231.713120,145.421051 
	C232.714340,147.778366 235.203613,150.493591 237.524338,151.068451 
	C241.002914,151.930115 241.042984,148.241974 241.613098,145.735260 
	C241.834244,144.762863 242.416580,143.872604 242.315460,144.097153 
	C241.664749,144.879227 240.258331,146.569580 238.077713,149.190430 
	C237.167557,146.046860 236.173721,143.946335 236.018875,141.785675 
	C235.746262,137.981934 236.326630,134.098633 235.853485,130.336243 
	C235.647812,128.700592 233.983124,126.589241 232.476227,126.012100 
	C231.499359,125.637970 229.067596,127.319633 228.252090,128.664795 
	C226.941971,130.825760 226.429916,133.470520 225.580643,135.910843 
	C224.829376,134.196671 225.171463,132.390030 224.533356,131.050217 
	C223.592850,129.075455 221.954086,127.433220 220.612717,125.649361 
	C219.382278,127.087349 218.151825,128.525345 216.537354,130.439636 
	C216.317139,131.221130 216.096924,132.002609 215.090912,132.786377 
	C214.683319,130.852844 214.275726,128.919312 213.784897,126.285461 
	C210.250854,124.530670 208.841400,125.377945 208.901703,129.551575 
	C208.980789,135.023773 208.439301,140.504959 207.828918,146.846542 
	C204.081223,149.391891 203.408615,146.442230 203.262238,143.934387 
	C202.991165,139.290588 203.191086,134.618256 203.226379,129.958038 
	C203.250244,126.807320 201.966644,125.360901 198.626907,125.938164 
	C197.537262,126.126495 196.283936,125.309998 195.176193,125.463478 
	C192.903641,125.778366 190.100021,125.758591 188.543640,127.084236 
	C183.979279,130.971954 183.667770,136.539108 184.120438,142.110413 
	C184.349731,144.932770 184.490112,147.572327 180.707092,147.953857 
	C175.792984,143.120865 177.848083,137.355255 179.504959,132.467758 
	C181.064209,127.868179 178.712082,128.254242 176.029373,127.783707 
	C174.469589,127.510139 172.947235,127.008064 171.420395,126.566048 
	C169.826111,126.104492 168.246658,125.591637 166.660721,125.101204 
	C166.296906,126.888901 165.338974,128.802887 165.686859,130.439301 
	C166.541946,134.461548 164.137817,140.587784 160.045013,142.819061 
	C160.045013,138.191376 160.218674,133.714828 159.927261,129.268784 
	C159.851044,128.105957 158.548569,126.557716 157.418732,126.041847 
	C155.830536,125.316689 153.836655,125.022781 152.091339,125.217430 
	C150.017654,125.448692 147.556732,125.852806 146.079681,127.127579 
	C140.976059,131.532257 141.368774,137.534805 141.880493,143.588242 
	C141.993256,144.922012 140.513168,146.390442 139.766571,147.796860 
	C138.706284,146.611343 136.931549,145.536774 136.726807,144.218399 
	C136.220520,140.958328 136.484283,137.584442 136.343765,134.260300 
	C136.173782,130.238922 139.011917,123.767570 130.182053,126.515480 
	C129.680206,126.671646 128.845963,125.345100 128.123566,125.292023 
	C126.536804,125.175438 124.149193,124.805336 123.461441,125.652847 
	C121.207993,128.429764 119.176880,131.544388 117.824966,134.842606 
	C116.856026,137.206482 117.521202,140.213013 116.678688,142.665329 
	C116.108490,144.325012 114.186081,145.520142 112.868462,146.923050 
	C112.020920,145.503281 110.510376,144.114670 110.441948,142.658279 
	C110.163116,136.724167 110.325829,130.769302 110.325829,125.380798 
	C113.920937,124.361115 116.478706,123.635658 119.036476,122.910202 
	C118.906364,122.312561 118.776253,121.714920 118.646141,121.117279 
	C116.120918,120.765968 113.595703,120.414650 110.838341,120.031044 
	C111.031586,115.918716 112.153381,111.183922 106.099281,112.252800 
	C104.961220,115.201981 103.985359,117.730835 102.083206,120.008812 
	C101.108139,120.285179 100.133080,120.561546 99.158012,120.837914 
	C99.707787,121.234558 100.257561,121.631203 100.799828,122.603241 
	C102.115158,123.963692 104.435440,125.244278 104.551132,126.700058 
	C104.857552,130.555725 104.354370,134.504669 103.882545,138.381119 
	C103.643272,140.346939 102.776108,142.236343 102.308289,143.779404 
	C98.819641,139.713104 95.755669,136.141800 92.827568,132.728867 
	C93.337547,130.420792 93.891403,127.914131 94.481934,125.241486 
	C87.098518,124.941559 84.762505,128.265289 87.203812,134.721146 
	C85.002556,138.525604 82.801300,142.330063 80.014374,147.146759 
	C78.956528,145.025330 78.124870,144.113876 78.102936,143.183334 
	C78.004944,139.028732 78.307793,134.859894 78.093086,130.715515 
	C78.020775,129.319733 77.143211,127.198318 76.104118,126.803986 
	C74.630119,126.244606 71.944267,126.318245 71.057922,127.290176 
	C69.057632,129.483627 67.843491,132.394012 65.953606,135.535477 
	C65.360512,135.660721 64.767418,135.785950 64.063271,135.044022 
	C64.075699,132.709183 64.088127,130.374359 64.644699,127.724792 
	C62.718651,124.849365 61.505428,124.658058 59.879261,127.795197 
	C59.939262,128.872177 59.999264,129.949158 59.830006,131.794174 
	C59.807587,136.912277 59.767563,142.030365 59.768883,147.148468 
	C59.769772,150.607788 61.368153,151.930664 65.123665,150.769821 
	C65.452553,147.871109 65.783577,144.953629 66.747162,141.801453 
	C67.179825,140.539246 67.612488,139.277039 68.480705,137.629868 
	C68.655151,137.087112 68.829597,136.544342 69.526054,135.516617 
	C70.369476,133.951431 71.212898,132.386246 72.056328,130.821060 
	C72.970100,136.095062 72.702927,140.988571 73.107216,145.825989 
	C73.259804,147.651764 74.650581,149.743530 76.116768,150.909348 
	C76.708344,151.379730 79.008644,149.683609 80.540527,148.993896 
	C82.038826,148.319305 83.548851,147.670792 85.586121,147.537598 
	C86.389915,148.596848 86.971947,150.153839 88.036392,150.628082 
	C92.345299,152.547882 97.385635,151.130966 100.409668,147.454254 
	C101.562119,146.053055 102.644333,144.594101 103.992554,142.860580 
	C108.000999,152.864594 108.533005,152.955399 117.561127,145.750458 
	C118.533661,147.062607 119.256958,148.730179 120.526520,149.605286 
	C123.056175,151.348969 125.951714,153.355331 128.594437,148.811798 
	C129.045853,148.309402 129.497269,147.807007 130.486771,147.146194 
	C130.655624,147.065887 130.824478,146.985596 131.624832,147.180649 
	C137.274368,151.893539 138.566452,151.919907 142.351151,147.974243 
	C142.571121,147.966446 142.791107,147.958664 143.596008,148.295288 
	C145.065643,149.192184 146.535294,150.089096 148.516602,151.258270 
	C149.676376,151.064987 150.836136,150.871719 152.495377,150.877365 
	C152.670334,150.916122 152.845291,150.954880 152.936188,151.601593 
	C152.231766,152.567459 151.527359,153.533340 150.203857,154.813309 
M48.933563,148.701019 
	C48.936459,149.462555 48.939354,150.224075 48.663944,151.570801 
	C48.364449,152.940125 48.064953,154.309448 47.765457,155.678772 
	C48.044296,155.890366 48.323135,156.101974 48.601971,156.313568 
	C49.828449,155.195129 51.054932,154.076706 52.855309,152.549118 
	C53.482216,150.670532 54.609886,148.803314 54.652874,146.911453 
	C54.890545,136.452225 54.950790,125.986343 54.873207,115.524208 
	C54.850853,112.509476 51.796196,111.160591 48.617680,112.427017 
	C43.465324,114.479881 38.419083,122.520172 38.787155,128.090210 
	C39.077080,132.477646 41.687687,134.990387 45.699966,134.743881 
	C42.380524,127.290421 43.494289,121.080887 49.152065,116.919197 
	C49.166336,127.272842 49.180607,137.626495 48.933563,148.701019 
z"/>
<path fill="#242424" opacity="1.000000" stroke="none" 
	d="
M128.103546,148.962341 
	C125.951714,153.355331 123.056175,151.348969 120.526520,149.605286 
	C119.256958,148.730179 118.533661,147.062607 117.561127,145.750458 
	C108.533005,152.955399 108.000999,152.864594 103.992554,142.860580 
	C102.644333,144.594101 101.562119,146.053055 100.409668,147.454254 
	C97.385635,151.130966 92.345299,152.547882 88.036392,150.628082 
	C86.971947,150.153839 86.389915,148.596848 85.300705,147.288849 
	C85.015289,147.040100 84.968712,147.020477 85.369713,147.065521 
	C87.386726,146.938034 89.014717,146.837555 90.615120,146.571243 
	C92.007370,146.339539 94.426056,146.129257 94.541534,145.544357 
	C94.865471,143.903595 94.651031,141.849686 93.861809,140.382034 
	C93.066551,138.903122 91.325844,137.932632 89.957932,136.439362 
	C89.055153,135.426758 88.193832,134.714172 87.332512,134.001587 
	C84.762505,128.265289 87.098518,124.941559 94.481934,125.241486 
	C93.891403,127.914131 93.337547,130.420792 92.827568,132.728867 
	C95.755669,136.141800 98.819641,139.713104 102.308289,143.779404 
	C102.776108,142.236343 103.643272,140.346939 103.882545,138.381119 
	C104.354370,134.504669 104.857552,130.555725 104.551132,126.700058 
	C104.435440,125.244278 102.115158,123.963692 101.023849,122.313919 
	C101.835083,121.436295 102.422287,120.847984 103.009491,120.259674 
	C103.985359,117.730835 104.961220,115.201981 106.099281,112.252800 
	C112.153381,111.183922 111.031586,115.918716 110.838341,120.031044 
	C113.595703,120.414650 116.120918,120.765968 118.646141,121.117279 
	C118.776253,121.714920 118.906364,122.312561 119.036476,122.910202 
	C116.478706,123.635658 113.920937,124.361115 110.325829,125.380798 
	C110.325829,130.769302 110.163116,136.724167 110.441948,142.658279 
	C110.510376,144.114670 112.020920,145.503281 112.868462,146.923050 
	C114.186081,145.520142 116.108490,144.325012 116.678688,142.665329 
	C117.521202,140.213013 116.856026,137.206482 117.824966,134.842606 
	C119.176880,131.544388 121.207993,128.429764 123.461441,125.652847 
	C124.149193,124.805336 126.536804,125.175438 128.123566,125.292023 
	C128.845963,125.345100 129.680206,126.671646 130.182053,126.515480 
	C139.011917,123.767570 136.173782,130.238922 136.343765,134.260300 
	C136.484283,137.584442 136.220520,140.958328 136.726807,144.218399 
	C136.931549,145.536774 138.706284,146.611343 139.766571,147.796860 
	C140.513168,146.390442 141.993256,144.922012 141.880493,143.588242 
	C141.368774,137.534805 140.976059,131.532257 146.079681,127.127579 
	C147.556732,125.852806 150.017654,125.448692 152.091339,125.217430 
	C153.836655,125.022781 155.830536,125.316689 157.418732,126.041847 
	C158.548569,126.557716 159.851044,128.105957 159.927261,129.268784 
	C160.218674,133.714828 160.045013,138.191376 160.045013,142.819061 
	C164.137817,140.587784 166.541946,134.461548 165.686859,130.439301 
	C165.338974,128.802887 166.296906,126.888901 166.660721,125.101204 
	C168.246658,125.591637 169.826111,126.104492 171.420395,126.566048 
	C172.947235,127.008064 174.469589,127.510139 176.029373,127.783707 
	C178.712082,128.254242 181.064209,127.868179 179.504959,132.467758 
	C177.848083,137.355255 175.792984,143.120865 180.707092,147.953857 
	C184.490112,147.572327 184.349731,144.932770 184.120438,142.110413 
	C183.667770,136.539108 183.979279,130.971954 188.543640,127.084236 
	C190.100021,125.758591 192.903641,125.778366 195.176193,125.463478 
	C196.283936,125.309998 197.537262,126.126495 198.626907,125.938164 
	C201.966644,125.360901 203.250244,126.807320 203.226379,129.958038 
	C203.191086,134.618256 202.991165,139.290588 203.262238,143.934387 
	C203.408615,146.442230 204.081223,149.391891 208.357574,146.333862 
	C209.592896,140.877563 210.396973,135.944962 210.958984,130.984940 
	C211.188385,128.960373 210.771011,126.788986 213.868134,126.985779 
	C214.275726,128.919312 214.683319,130.852844 215.623749,133.046082 
	C216.680801,133.472778 217.205017,133.639755 217.827881,133.887482 
	C217.926529,133.968216 218.140610,134.106628 218.140610,134.106628 
	C216.846344,139.556046 215.552063,145.005463 214.019043,151.460068 
	C212.528656,150.877151 210.294952,150.003510 207.471542,148.899231 
	C205.559143,150.884766 202.671539,152.997131 199.278992,147.853638 
	C198.282227,147.174759 197.643585,147.021530 197.006226,146.643356 
	C197.007523,146.418411 196.987534,145.967529 196.940186,145.538239 
	C197.135590,141.230042 197.856613,137.306122 197.496872,133.483902 
	C197.071930,128.968964 194.742813,128.334946 190.731766,131.128342 
	C190.409348,131.392776 190.351669,131.687195 190.246277,132.444244 
	C190.170364,137.686890 188.054932,142.722610 192.003418,147.369873 
	C191.794830,148.985489 191.511139,150.255798 191.227448,151.526123 
	C190.134644,150.904984 189.106094,150.038116 187.931198,149.730881 
	C186.722183,149.414703 185.035583,149.133301 184.137772,149.721573 
	C179.716431,152.618561 174.819717,151.045319 174.074722,145.774124 
	C173.465530,141.463684 173.950699,136.998566 173.950699,132.104584 
	C172.006470,131.420197 170.468781,132.166367 168.980545,135.188110 
	C166.833954,139.546570 163.638275,143.376846 161.127304,147.574310 
	C160.364639,148.849228 160.145401,150.583847 160.090240,152.122711 
	C159.908905,157.180893 160.911911,162.403442 157.229340,166.796616 
	C156.155563,166.032196 155.547134,165.437561 154.981125,164.456879 
	C155.348740,160.696747 155.673950,157.322662 155.991516,153.581665 
	C154.996002,152.474380 154.008133,151.734024 153.020264,150.993652 
	C152.845291,150.954880 152.670334,150.916122 152.242371,150.409103 
	C151.900192,149.210983 151.811035,148.481140 151.726212,147.776871 
	C151.730560,147.802460 151.723801,147.755753 152.108826,147.825287 
	C153.464890,147.608078 154.435959,147.321320 155.407013,147.034576 
	C154.805664,146.638992 154.204300,146.243393 153.706635,145.462067 
	C155.097534,140.816681 157.840897,136.639114 154.897614,132.087708 
	C154.161514,130.949448 152.651627,129.208817 151.933197,129.398209 
	C150.562851,129.759460 148.933151,131.087830 148.420532,132.406967 
	C146.420090,137.554611 146.306702,142.783569 149.028122,148.145691 
	C148.661728,149.316650 148.333328,150.151321 148.004929,150.985992 
	C146.535294,150.089096 145.065643,149.192184 143.246399,147.966324 
	C142.687210,147.335129 142.400833,147.253693 142.037659,147.393036 
	C138.566452,151.919907 137.274368,151.893539 131.213898,146.846344 
	C130.624222,146.268951 130.391617,146.099930 130.063324,145.580078 
	C130.301270,141.131454 130.873718,137.094894 130.698120,133.091156 
	C130.638672,131.735382 128.687820,130.462555 127.601318,129.151825 
	C126.347267,130.303284 124.227882,131.307983 124.002983,132.634003 
	C123.352821,136.467270 122.951469,140.505066 123.508369,144.307922 
	C123.762955,146.046432 126.495071,147.422104 128.103546,148.962341 
z"/>
<path fill="#2A2A2A" opacity="1.000000" stroke="none" 
	d="
M216.921387,129.963333 
	C218.151825,128.525345 219.382278,127.087349 220.612717,125.649368 
	C221.954086,127.433220 223.592850,129.075455 224.533356,131.050217 
	C225.171463,132.390030 224.829376,134.196671 225.580643,135.910843 
	C226.429916,133.470520 226.941971,130.825760 228.252090,128.664795 
	C229.067596,127.319633 231.499359,125.637970 232.476227,126.012100 
	C233.983124,126.589241 235.647812,128.700592 235.853485,130.336243 
	C236.326630,134.098633 235.746262,137.981934 236.018875,141.785675 
	C236.173721,143.946335 237.167557,146.046860 238.077713,149.190430 
	C240.258331,146.569580 241.664749,144.879227 242.315460,144.097153 
	C242.416580,143.872604 241.834244,144.762863 241.613098,145.735260 
	C241.042984,148.241974 241.002914,151.930115 237.524338,151.068451 
	C235.203613,150.493591 232.714340,147.778366 231.713120,145.421051 
	C230.497879,142.559875 230.769684,139.067093 230.398117,135.847580 
	C229.972946,135.795685 229.547775,135.743790 229.122604,135.691879 
	C228.217255,140.050400 227.311890,144.408905 226.357697,149.002457 
	C223.168076,150.039795 221.434570,148.493973 221.010132,145.328674 
	C220.482178,141.391388 220.229828,137.417282 219.839279,133.460968 
	C219.827408,133.340790 219.562546,133.126602 219.483566,133.153778 
	C219.221664,133.243866 218.990860,133.424423 218.444366,133.838440 
	C218.140610,134.106628 217.926529,133.968216 217.903503,133.537689 
	C217.560776,132.059219 217.241074,131.011276 216.921387,129.963333 
z"/>
<path fill="#2A2A2A" opacity="1.000000" stroke="none" 
	d="
M49.064972,115.983162 
	C43.494289,121.080887 42.380524,127.290421 45.699966,134.743881 
	C41.687687,134.990387 39.077080,132.477646 38.787155,128.090210 
	C38.419083,122.520172 43.465324,114.479881 48.617680,112.427017 
	C51.796196,111.160591 54.850853,112.509476 54.873207,115.524208 
	C54.950790,125.986343 54.890545,136.452225 54.652874,146.911453 
	C54.609886,148.803314 53.482216,150.670532 52.228348,152.726074 
	C50.715012,152.263901 49.828632,151.624756 48.942249,150.985611 
	C48.939354,150.224075 48.936459,149.462555 49.445480,148.232773 
	C50.265629,147.401001 50.839760,147.040009 50.843243,146.673584 
	C50.932888,137.244888 51.010448,127.815201 50.918953,118.387337 
	C50.911118,117.580025 49.711147,116.784279 49.064972,115.983162 
z"/>
<path fill="#212121" opacity="1.000000" stroke="none" 
	d="
M87.268158,134.361359 
	C88.193832,134.714172 89.055153,135.426758 89.594757,136.549225 
	C88.226051,138.718430 87.009796,140.402695 86.185791,142.260910 
	C85.531212,143.737061 85.356491,145.426010 84.968712,147.020477 
	C84.968712,147.020477 85.015289,147.040100 85.034508,147.025467 
	C83.548851,147.670792 82.038826,148.319305 80.540527,148.993896 
	C79.008644,149.683609 76.708344,151.379730 76.116768,150.909348 
	C74.650581,149.743530 73.259804,147.651764 73.107216,145.825989 
	C72.702927,140.988571 72.970100,136.095062 72.056328,130.821060 
	C71.212898,132.386246 70.369476,133.951431 68.998779,135.643524 
	C67.750832,135.517868 67.030174,135.265305 66.309509,135.012726 
	C67.843491,132.394012 69.057632,129.483627 71.057922,127.290176 
	C71.944267,126.318245 74.630119,126.244606 76.104118,126.803986 
	C77.143211,127.198318 78.020775,129.319733 78.093086,130.715515 
	C78.307793,134.859894 78.004944,139.028732 78.102936,143.183334 
	C78.124870,144.113876 78.956528,145.025330 80.014374,147.146759 
	C82.801300,142.330063 85.002556,138.525604 87.268158,134.361359 
z"/>
<path fill="#F2F2F2" opacity="1.000000" stroke="none" 
	d="
M128.348999,148.887070 
	C126.495071,147.422104 123.762955,146.046432 123.508369,144.307922 
	C122.951469,140.505066 123.352821,136.467270 124.002983,132.634003 
	C124.227882,131.307983 126.347267,130.303284 127.601318,129.151825 
	C128.687820,130.462555 130.638672,131.735382 130.698120,133.091156 
	C130.873718,137.094894 130.301270,141.131454 129.922546,145.892731 
	C129.865295,146.855072 129.906982,147.079834 129.948685,147.304596 
	C129.497269,147.807007 129.045853,148.309402 128.348999,148.887070 
z"/>
<path fill="#181818" opacity="1.000000" stroke="none" 
	d="
M66.114609,142.036163 
	C65.783577,144.953629 65.452553,147.871109 65.123665,150.769821 
	C61.368153,151.930664 59.769772,150.607788 59.768883,147.148468 
	C59.767563,142.030365 59.807587,136.912277 60.230335,131.709442 
	C60.873245,136.571854 61.115826,141.518997 61.342220,146.136124 
	C63.171162,144.564880 64.642883,143.300522 66.114609,142.036163 
z"/>
<path fill="#1F1F1F" opacity="1.000000" stroke="none" 
	d="
M66.430885,141.918808 
	C64.642883,143.300522 63.171162,144.564880 61.342220,146.136124 
	C61.115826,141.518997 60.873245,136.571854 60.344963,131.325424 
	C59.999264,129.949158 59.939262,128.872177 60.314644,127.404770 
	C61.866867,127.356064 62.983707,127.697792 64.100548,128.039520 
	C64.088127,130.374359 64.075699,132.709183 63.871338,135.630981 
	C65.134659,136.816910 66.589905,137.415878 68.045158,138.014832 
	C67.612488,139.277039 67.179825,140.539246 66.430885,141.918808 
z"/>
<path fill="#171717" opacity="1.000000" stroke="none" 
	d="
M49.108521,116.451180 
	C49.711147,116.784279 50.911118,117.580025 50.918953,118.387337 
	C51.010448,127.815201 50.932888,137.244888 50.843243,146.673584 
	C50.839760,147.040009 50.265629,147.401001 49.576138,147.872330 
	C49.180607,137.626495 49.166336,127.272842 49.108521,116.451180 
z"/>
<path fill="#212121" opacity="1.000000" stroke="none" 
	d="
M154.938721,164.842941 
	C155.547134,165.437561 156.155563,166.032196 156.925110,166.907318 
	C154.713135,169.806946 151.944901,170.894485 148.509598,169.402954 
	C145.492538,168.093002 144.373535,165.774475 145.416779,162.294800 
	C147.003815,162.000336 148.058243,161.999420 149.068604,162.425842 
	C149.443985,164.297882 149.863388,165.742569 150.282806,167.187256 
	C151.834778,166.405807 153.386749,165.624374 154.938721,164.842941 
z"/>
<path fill="#0F0F0F" opacity="1.000000" stroke="none" 
	d="
M213.826508,126.635620 
	C210.771011,126.788986 211.188385,128.960373 210.958984,130.984940 
	C210.396973,135.944962 209.592896,140.877563 208.525482,145.901733 
	C208.439301,140.504959 208.980789,135.023773 208.901703,129.551575 
	C208.841400,125.377945 210.250854,124.530670 213.826508,126.635620 
z"/>
<path fill="#242424" opacity="1.000000" stroke="none" 
	d="
M149.112656,161.998505 
	C148.058243,161.999420 147.003815,162.000336 145.554016,162.002289 
	C146.840378,159.606659 148.522125,157.209991 150.586426,155.052277 
	C151.431046,155.908218 151.893082,156.525192 152.233368,157.447586 
	C151.111969,159.168167 150.112305,160.583328 149.112656,161.998505 
z"/>
<path fill="#F4F4F4" opacity="1.000000" stroke="none" 
	d="
M197.004929,146.868317 
	C197.643585,147.021530 198.282227,147.174759 199.013077,147.650421 
	C196.647583,149.273315 194.189896,150.573761 191.479828,151.700165 
	C191.511139,150.255798 191.794830,148.985489 192.304108,147.377380 
	C193.696655,147.003464 194.863632,146.967331 196.280151,147.008179 
	C196.688110,147.012863 196.846512,146.940598 197.004929,146.868317 
z"/>
<path fill="#212121" opacity="1.000000" stroke="none" 
	d="
M152.355118,157.142181 
	C151.893082,156.525192 151.431046,155.908218 150.895966,154.895218 
	C151.527359,153.533340 152.231766,152.567459 152.978226,151.297623 
	C154.008133,151.734024 154.996002,152.474380 155.717651,153.722137 
	C154.419312,155.200409 153.387222,156.171295 152.355118,157.142181 
z"/>
<path fill="#171717" opacity="1.000000" stroke="none" 
	d="
M48.803097,151.278198 
	C49.828632,151.624756 50.715012,152.263901 51.941399,152.930664 
	C51.054932,154.076706 49.828449,155.195129 48.601971,156.313568 
	C48.323135,156.101974 48.044296,155.890366 47.765457,155.678772 
	C48.064953,154.309448 48.364449,152.940125 48.803097,151.278198 
z"/>
<path fill="#181818" opacity="1.000000" stroke="none" 
	d="
M68.262932,137.822357 
	C66.589905,137.415878 65.134659,136.816910 63.926865,136.064575 
	C64.767418,135.785950 65.360512,135.660721 66.131561,135.274109 
	C67.030174,135.265305 67.750832,135.517868 68.737778,135.886017 
	C68.829597,136.544342 68.655151,137.087112 68.262932,137.822357 
z"/>
<path fill="#1F1F1F" opacity="1.000000" stroke="none" 
	d="
M148.260773,151.122131 
	C148.333328,150.151321 148.661728,149.316650 149.356598,148.075943 
	C150.389328,147.697037 151.055603,147.724167 151.721863,147.751282 
	C151.811035,148.481140 151.900192,149.210983 151.992645,150.309647 
	C150.836136,150.871719 149.676376,151.064987 148.260773,151.122131 
z"/>
<path fill="#181818" opacity="1.000000" stroke="none" 
	d="
M64.372620,127.882156 
	C62.983707,127.697792 61.866867,127.356064 60.394127,127.006378 
	C61.505428,124.658058 62.718651,124.849365 64.372620,127.882156 
z"/>
<path fill="#0F0F0F" opacity="1.000000" stroke="none" 
	d="
M216.729370,130.201477 
	C217.241074,131.011276 217.560776,132.059219 217.804855,133.456940 
	C217.205017,133.639755 216.680801,133.472778 216.016632,133.044952 
	C216.096924,132.002609 216.317139,131.221130 216.729370,130.201477 
z"/>
<path fill="#2B2B2B" opacity="1.000000" stroke="none" 
	d="
M102.546349,120.134247 
	C102.422287,120.847984 101.835083,121.436295 101.027603,122.026230 
	C100.257561,121.631203 99.707787,121.234558 99.158012,120.837914 
	C100.133080,120.561546 101.108139,120.285179 102.546349,120.134247 
z"/>
<path fill="#2B2B2B" opacity="1.000000" stroke="none" 
	d="
M130.217728,147.225403 
	C129.906982,147.079834 129.865295,146.855072 129.964386,146.317657 
	C130.391617,146.099930 130.624222,146.268951 130.898148,146.708679 
	C130.824478,146.985596 130.655624,147.065887 130.217728,147.225403 
z"/>
<path fill="#1F1F1F" opacity="1.000000" stroke="none" 
	d="
M142.194397,147.683640 
	C142.400833,147.253693 142.687210,147.335129 142.953949,147.794113 
	C142.791107,147.958664 142.571121,147.966446 142.194397,147.683640 
z"/>
<path fill="#F5F5F5" opacity="1.000000" stroke="none" 
	d="
M151.726212,147.776871 
	C151.055603,147.724167 150.389328,147.697037 149.394592,147.739655 
	C146.306702,142.783569 146.420090,137.554611 148.420532,132.406967 
	C148.933151,131.087830 150.562851,129.759460 151.933197,129.398209 
	C152.651627,129.208817 154.161514,130.949448 154.897614,132.087708 
	C157.840897,136.639114 155.097534,140.816681 153.469650,145.598801 
	C152.660599,146.666107 152.192200,147.210922 151.723801,147.755753 
	C151.723801,147.755753 151.730560,147.802460 151.726212,147.776871 
z"/>
<path fill="#FEFEFE" opacity="1.000000" stroke="none" 
	d="
M196.030609,146.931213 
	C194.863632,146.967331 193.696655,147.003464 192.229004,147.032074 
	C188.054932,142.722610 190.170364,137.686890 190.408920,132.351349 
	C190.809814,131.621658 190.935562,131.409180 190.996506,131.158325 
	C194.742813,128.334946 197.071930,128.968964 197.496872,133.483902 
	C197.856613,137.306122 197.135590,141.230042 196.697586,145.602600 
	C196.345078,146.374573 196.187851,146.652893 196.030609,146.931213 
z"/>
<path fill="#EEEEEE" opacity="1.000000" stroke="none" 
	d="
M152.233368,157.447586 
	C153.387222,156.171295 154.419312,155.200409 155.725281,154.089050 
	C155.673950,157.322662 155.348740,160.696747 154.981125,164.456879 
	C153.386749,165.624374 151.834778,166.405807 150.282806,167.187256 
	C149.863388,165.742569 149.443985,164.297882 149.068604,162.425842 
	C150.112305,160.583328 151.111969,159.168167 152.233368,157.447586 
z"/>
<path fill="#FEFEFE" opacity="1.000000" stroke="none" 
	d="
M85.369713,147.065521 
	C85.356491,145.426010 85.531212,143.737061 86.185791,142.260910 
	C87.009796,140.402695 88.226051,138.718430 89.636215,136.849243 
	C91.325844,137.932632 93.066551,138.903122 93.861809,140.382034 
	C94.651031,141.849686 94.865471,143.903595 94.541534,145.544357 
	C94.426056,146.129257 92.007370,146.339539 90.615120,146.571243 
	C89.014717,146.837555 87.386726,146.938034 85.369713,147.065521 
z"/>
<path fill="#1F1F1F" opacity="1.000000" stroke="none" 
	d="
M152.108826,147.825287 
	C152.192200,147.210922 152.660599,146.666107 153.365967,145.984543 
	C154.204300,146.243393 154.805664,146.638992 155.407013,147.034576 
	C154.435959,147.321320 153.464890,147.608078 152.108826,147.825287 
z"/>
<path fill="#F4F4F4" opacity="1.000000" stroke="none" 
	d="
M190.731766,131.128342 
	C190.935562,131.409180 190.809814,131.621658 190.456635,131.888702 
	C190.351669,131.687195 190.409348,131.392776 190.731766,131.128342 
z"/>
<path fill="#2B2B2B" opacity="1.000000" stroke="none" 
	d="
M196.280167,147.008179 
	C196.187851,146.652893 196.345078,146.374573 196.744934,146.031891 
	C196.987534,145.967529 197.007523,146.418411 197.006226,146.643372 
	C196.846512,146.940598 196.688110,147.012863 196.280167,147.008179 
z"/>
</svg>