<svg version="1.1" id="Layer_1" xmlns="http://www.w3.org/2000/svg" xmlns:xlink="http://www.w3.org/1999/xlink" x="0px" y="0px"
	 width="100%" viewBox="0 0 284 99" enable-background="new 0 0 284 99" xml:space="preserve">
<path fill="#4967AB" opacity="1.000000" stroke="none" 
	d="
M196.000000,100.000000 
	C130.666687,100.000000 65.833374,100.000000 1.000043,100.000000 
	C1.000029,67.000031 1.000029,34.000057 1.000015,1.000066 
	C95.666603,1.000044 190.333206,1.000044 284.999878,1.000022 
	C284.999908,33.999935 284.999908,66.999870 284.999939,99.999901 
	C255.500000,100.000000 226.000000,100.000000 196.000000,100.000000 
M48.517475,50.450012 
	C48.753765,48.066128 48.990059,45.682240 49.226353,43.298355 
	C48.771908,43.629547 48.317463,43.960743 47.863018,44.291939 
	C45.894035,42.892044 42.693649,41.842209 42.178226,40.029106 
	C40.356426,33.620548 47.298103,36.361340 49.389526,33.939613 
	C49.389526,31.914486 49.389526,29.976160 49.389526,26.685711 
	C44.990658,27.487204 39.773399,26.911211 37.437244,29.233509 
	C34.209095,32.442513 33.152000,37.835526 30.854805,42.989330 
	C30.616867,43.007782 28.998363,43.133289 27.131577,43.278049 
	C27.131577,45.776619 27.131577,48.008152 27.131577,50.460228 
	C29.108316,50.701996 30.840517,50.913849 33.035439,51.182301 
	C33.035439,58.551250 33.035439,65.638550 33.035439,72.977531 
	C36.338928,72.977531 39.134804,72.977531 42.362446,72.275436 
	C42.574856,67.682121 43.144001,63.069279 42.893913,58.501286 
	C42.668285,54.380100 44.023037,51.955685 48.517475,50.450012 
M204.254700,58.092091 
	C204.543015,60.062675 204.657578,62.078175 205.153076,63.995213 
	C206.499481,69.204369 214.301559,75.277512 218.913773,74.859360 
	C231.268387,73.739265 238.429291,61.596340 232.654266,50.419907 
	C230.990997,47.200966 226.931808,44.074291 223.396790,43.182945 
	C212.769012,40.503181 207.166061,45.032913 203.357849,57.124203 
	C202.621460,55.696632 201.643082,54.341408 201.190903,52.828873 
	C199.309998,46.537300 195.656921,43.380775 189.143372,42.686867 
	C177.894516,41.488491 171.737366,47.593933 172.057281,59.629486 
	C172.266556,67.502861 178.224091,74.179604 185.699387,74.918488 
	C191.892120,75.530594 199.585037,69.412857 201.365829,62.744488 
	C201.887878,60.789627 203.170502,59.037876 204.254700,58.092091 
M238.159683,73.044014 
	C240.896164,73.044014 243.632660,73.044014 247.098450,73.044014 
	C247.098450,68.894745 247.098450,65.443192 247.098450,60.918411 
	C252.839767,66.393501 253.987335,76.964813 264.851685,72.261803 
	C262.569763,68.680939 260.539062,65.078568 258.091766,61.785809 
	C256.147095,59.169331 255.878693,57.104752 257.941925,54.351170 
	C260.454773,50.997498 262.439484,47.248093 264.824615,43.391819 
	C255.767502,42.605228 255.775009,42.610115 251.376236,49.367908 
	C250.752747,50.325787 250.014908,51.209221 248.809128,51.447613 
	C248.540649,47.687462 248.299515,43.925102 247.996262,40.167759 
	C247.668076,36.101482 247.281937,32.039890 246.268295,27.687746 
	C243.306595,27.820810 240.344910,27.953876 236.869171,28.736217 
	C236.591248,29.669338 236.075592,30.601377 236.071320,31.535742 
	C236.014069,44.112415 235.993149,56.689655 236.079788,69.265953 
	C236.088196,70.486954 236.870636,71.702621 238.159683,73.044014 
M138.880936,28.736675 
	C138.599167,29.668245 138.076416,30.598686 138.072052,31.531557 
	C138.013138,44.109936 137.991241,56.688889 138.077637,69.266899 
	C138.085999,70.486626 138.874908,71.700996 140.154495,73.036484 
	C143.159149,72.796265 146.163818,72.556053 150.640213,72.198181 
	C158.224106,77.663368 167.318375,71.767555 168.441498,64.275398 
	C169.066971,60.103046 169.126541,55.580299 168.197739,51.498383 
	C166.506653,44.066246 160.010315,40.957695 152.805298,43.317303 
	C151.656021,43.693676 150.486877,44.009338 148.466248,44.608109 
	C148.466248,38.450047 148.466248,33.086945 148.466248,27.463699 
	C144.968521,27.704350 142.182495,27.896032 138.880936,28.736675 
M79.337425,60.477898 
	C79.337425,54.748707 79.337425,49.019512 79.337425,42.260506 
	C75.351906,43.229057 72.417946,43.942062 68.595520,44.870975 
	C61.596165,39.772354 52.459007,42.650677 50.553127,52.244778 
	C49.711853,56.479698 50.029968,61.269547 51.094772,65.485970 
	C52.902401,72.643837 59.594528,75.494240 66.456070,72.944893 
	C67.774300,72.455116 69.261040,72.036209 70.627808,72.140121 
	C73.391212,72.350212 76.125671,72.941284 79.337326,73.448769 
	C79.337326,68.764244 79.337326,65.114021 79.337425,60.477898 
M108.617798,65.389053 
	C112.341667,74.382271 124.371208,77.673210 134.911377,71.026077 
	C134.445938,69.387634 133.962570,67.686050 133.496872,66.046677 
	C118.223541,67.137398 118.223541,67.137398 117.315010,61.195541 
	C123.450607,61.195541 129.520493,61.195541 135.685776,61.195541 
	C135.798706,59.871998 135.918945,59.055206 135.930573,58.236877 
	C136.078629,47.809601 131.457855,42.512428 122.234283,42.513687 
	C112.608635,42.514999 107.809364,47.722027 107.907684,58.143646 
	C107.928032,60.300617 108.168015,62.455517 108.617798,65.389053 
M83.814514,50.574223 
	C81.231163,57.848576 82.634933,67.491531 86.760117,70.808601 
	C92.433075,75.370239 99.831940,75.587997 106.511024,71.212379 
	C105.958221,69.469193 105.381355,67.650131 104.804482,65.831070 
	C104.540863,66.286171 104.277245,66.741272 104.013618,67.196365 
	C100.308075,66.061089 95.150024,65.993462 93.308456,63.488075 
	C91.493164,61.018421 91.629784,55.013206 93.511482,52.532372 
	C95.304741,50.168110 100.455322,50.350338 104.129929,49.413055 
	C104.340637,49.829041 104.551346,50.245022 104.762062,50.661007 
	C105.409027,48.690037 106.055992,46.719063 106.680931,44.815201 
	C98.057037,40.291195 88.774132,42.479313 83.814514,50.574223 
z"/>
<path fill="#F6F7FA" opacity="1.000000" stroke="none" 
	d="
M139.396454,28.087715 
	C142.182495,27.896032 144.968521,27.704350 148.466248,27.463699 
	C148.466248,33.086945 148.466248,38.450047 148.466248,44.608109 
	C150.486877,44.009338 151.656021,43.693676 152.805298,43.317303 
	C160.010315,40.957695 166.506653,44.066246 168.197739,51.498383 
	C169.126541,55.580299 169.066971,60.103046 168.441498,64.275398 
	C167.318375,71.767555 158.224106,77.663368 150.640213,72.198181 
	C146.163818,72.556053 143.159149,72.796265 139.692642,72.516037 
	C139.286011,57.359638 139.341232,42.723675 139.396454,28.087715 
M148.664444,55.803997 
	C148.702286,57.625584 148.672195,59.451691 148.793137,61.267742 
	C148.997864,64.341957 150.525757,66.142563 153.767273,66.341934 
	C156.921692,66.535950 158.956085,65.075546 159.582108,62.119522 
	C160.019913,60.052170 160.515076,57.555691 159.748795,55.785995 
	C158.784805,53.559704 156.891357,50.890141 154.803146,50.190693 
	C151.509506,49.087494 149.194092,51.289383 148.664444,55.803997 
z"/>
<path fill="#F4F5F9" opacity="1.000000" stroke="none" 
	d="
M249.329987,52.127113 
	C250.014908,51.209221 250.752747,50.325787 251.376236,49.367908 
	C255.775009,42.610115 255.767502,42.605228 264.824615,43.391819 
	C262.439484,47.248093 260.454773,50.997498 257.941925,54.351170 
	C255.878693,57.104752 256.147095,59.169331 258.091766,61.785809 
	C260.539062,65.078568 262.569763,68.680939 264.851685,72.261803 
	C253.987335,76.964813 252.839767,66.393501 247.098450,60.918411 
	C247.098450,65.443192 247.098450,68.894745 247.098450,73.044014 
	C243.632660,73.044014 240.896164,73.044014 237.721786,72.519943 
	C237.317001,57.359566 237.350113,42.723251 237.383209,28.086941 
	C240.344910,27.953876 243.306595,27.820810 246.559570,28.300724 
	C246.850845,37.664169 246.850845,46.414635 246.850845,55.165100 
	C247.187103,55.183945 247.523376,55.202789 247.859634,55.221634 
	C248.349747,54.190125 248.839874,53.158619 249.329987,52.127113 
z"/>
<path fill="#FAFBFC" opacity="1.000000" stroke="none" 
	d="
M79.337372,60.970848 
	C79.337326,65.114021 79.337326,68.764244 79.337326,73.448769 
	C76.125671,72.941284 73.391212,72.350212 70.627808,72.140121 
	C69.261040,72.036209 67.774300,72.455116 66.456070,72.944893 
	C59.594528,75.494240 52.902401,72.643837 51.094772,65.485970 
	C50.029968,61.269547 49.711853,56.479698 50.553127,52.244778 
	C52.459007,42.650677 61.596165,39.772354 68.595520,44.870975 
	C72.417946,43.942062 75.351906,43.229057 79.337425,42.260506 
	C79.337425,49.019512 79.337425,54.748707 79.337372,60.970848 
M64.541229,50.913265 
	C63.139980,51.228859 60.553539,51.453354 60.521191,51.874161 
	C60.204830,55.990128 60.006611,60.179401 60.542519,64.246674 
	C60.660805,65.144417 63.916649,66.362312 65.530502,66.119881 
	C67.095200,65.884834 69.296242,64.172539 69.639259,62.732910 
	C70.309433,59.920254 70.349739,56.735226 69.692703,53.928673 
	C69.394051,52.652966 66.812996,51.911594 64.541229,50.913265 
M70.679916,70.557495 
	C70.514610,70.536179 70.349297,70.514862 70.183990,70.493538 
	C70.255386,70.591095 70.326790,70.688652 70.679916,70.557495 
z"/>
<path fill="#F8F9FB" opacity="1.000000" stroke="none" 
	d="
M108.462280,65.000214 
	C108.168015,62.455517 107.928032,60.300617 107.907684,58.143646 
	C107.809364,47.722027 112.608635,42.514999 122.234283,42.513687 
	C131.457855,42.512428 136.078629,47.809601 135.930573,58.236877 
	C135.918945,59.055206 135.798706,59.871998 135.685776,61.195541 
	C129.520493,61.195541 123.450607,61.195541 117.315010,61.195541 
	C118.223541,67.137398 118.223541,67.137398 133.496872,66.046677 
	C133.962570,67.686050 134.445938,69.387634 134.911377,71.026077 
	C124.371208,77.673210 112.341667,74.382271 108.462280,65.000214 
M118.796524,50.121494 
	C118.338585,51.401363 117.880646,52.681232 117.422699,53.961105 
	C119.232330,54.379177 121.074234,55.219261 122.841560,55.084106 
	C124.301155,54.972492 125.672562,53.707699 127.083046,52.953888 
	C125.638809,51.620987 124.334251,50.055008 122.683937,49.065956 
	C121.990486,48.650360 120.565796,49.454910 118.796524,50.121494 
z"/>
<path fill="#F8F9FB" opacity="1.000000" stroke="none" 
	d="
M204.104553,57.193039 
	C203.170502,59.037876 201.887878,60.789627 201.365829,62.744488 
	C199.585037,69.412857 191.892120,75.530594 185.699387,74.918488 
	C178.224091,74.179604 172.266556,67.502861 172.057281,59.629486 
	C171.737366,47.593933 177.894516,41.488491 189.143372,42.686867 
	C195.656921,43.380775 199.309998,46.537300 201.190903,52.828873 
	C201.643082,54.341408 202.621460,55.696632 203.721207,57.200119 
	C204.084564,57.276035 204.104553,57.193039 204.104553,57.193039 
M187.422440,66.331688 
	C192.003174,64.763680 193.658737,60.471859 192.132126,54.122406 
	C191.415268,51.140858 184.718399,48.707287 183.394409,51.201038 
	C181.819733,54.166935 181.189423,58.074944 181.526596,61.436653 
	C181.706009,63.225250 184.792862,64.722221 187.422440,66.331688 
z"/>
<path fill="#F9F9FC" opacity="1.000000" stroke="none" 
	d="
M204.179626,57.642563 
	C204.104553,57.193039 204.084564,57.276035 204.095795,57.314087 
	C207.166061,45.032913 212.769012,40.503181 223.396790,43.182945 
	C226.931808,44.074291 230.990997,47.200966 232.654266,50.419907 
	C238.429291,61.596340 231.268387,73.739265 218.913773,74.859360 
	C214.301559,75.277512 206.499481,69.204369 205.153076,63.995213 
	C204.657578,62.078175 204.543015,60.062675 204.179626,57.642563 
M215.614212,51.137871 
	C215.162369,55.125790 214.081238,59.173241 214.451157,63.083416 
	C214.766129,66.412689 221.470352,68.038200 222.795563,65.125366 
	C224.413818,61.568356 224.753021,56.879166 224.046265,52.968609 
	C223.332077,49.016972 219.502167,49.445763 215.614212,51.137871 
z"/>
<path fill="#F9F9FC" opacity="1.000000" stroke="none" 
	d="
M41.930676,72.977531 
	C39.134804,72.977531 36.338928,72.977531 33.035439,72.977531 
	C33.035439,65.638550 33.035439,58.551250 33.035439,51.182301 
	C30.840517,50.913849 29.108316,50.701996 27.131577,50.460228 
	C27.131577,48.008152 27.131577,45.776619 27.131577,43.278049 
	C28.998363,43.133289 30.616867,43.007782 30.854805,42.989330 
	C33.152000,37.835526 34.209095,32.442513 37.437244,29.233509 
	C39.773399,26.911211 44.990658,27.487204 49.389526,26.685711 
	C49.389526,29.976160 49.389526,31.914486 49.389526,33.939613 
	C47.298103,36.361340 40.356426,33.620548 42.178226,40.029106 
	C42.693649,41.842209 45.894035,42.892044 47.863018,44.291939 
	C48.317463,43.960743 48.771908,43.629547 49.226353,43.298355 
	C48.990059,45.682240 48.753765,48.066128 47.805870,50.652718 
	C45.499332,50.855427 43.904396,50.855427 41.930676,50.855427 
	C41.930676,58.508377 41.930676,65.742958 41.930676,72.977531 
z"/>
<path fill="#F7F8FB" opacity="1.000000" stroke="none" 
	d="
M83.954742,50.215141 
	C88.774132,42.479313 98.057037,40.291195 106.680931,44.815201 
	C106.055992,46.719063 105.409027,48.690037 104.762062,50.661007 
	C104.551346,50.245022 104.340637,49.829041 104.129929,49.413055 
	C100.455322,50.350338 95.304741,50.168110 93.511482,52.532372 
	C91.629784,55.013206 91.493164,61.018421 93.308456,63.488075 
	C95.150024,65.993462 100.308075,66.061089 104.013618,67.196365 
	C104.277245,66.741272 104.540863,66.286171 104.804482,65.831070 
	C105.381355,67.650131 105.958221,69.469193 106.511024,71.212379 
	C99.831940,75.587997 92.433075,75.370239 86.760117,70.808601 
	C82.634933,67.491531 81.231163,57.848576 83.954742,50.215141 
z"/>
<path fill="#2C58A5" opacity="1.000000" stroke="none" 
	d="
M237.126190,28.411579 
	C237.350113,42.723251 237.317001,57.359566 237.288849,72.458328 
	C236.870636,71.702621 236.088196,70.486954 236.079788,69.265953 
	C235.993149,56.689655 236.014069,44.112415 236.071320,31.535742 
	C236.075592,30.601377 236.591248,29.669338 237.126190,28.411579 
z"/>
<path fill="#2C58A5" opacity="1.000000" stroke="none" 
	d="
M139.138702,28.412195 
	C139.341232,42.723675 139.286011,57.359638 139.266144,72.456726 
	C138.874908,71.700996 138.085999,70.486626 138.077637,69.266899 
	C137.991241,56.688889 138.013138,44.109936 138.072052,31.531557 
	C138.076416,30.598686 138.599167,29.668245 139.138702,28.412195 
z"/>
<path fill="#2D59A6" opacity="1.000000" stroke="none" 
	d="
M249.069550,51.787361 
	C248.839874,53.158619 248.349747,54.190125 247.859634,55.221634 
	C247.523376,55.202789 247.187103,55.183945 246.850845,55.165100 
	C246.850845,46.414635 246.850845,37.664169 246.885956,28.444977 
	C247.281937,32.039890 247.668076,36.101482 247.996262,40.167759 
	C248.299515,43.925102 248.540649,47.687462 249.069550,51.787361 
z"/>
<path fill="#2B58A5" opacity="1.000000" stroke="none" 
	d="
M42.146561,72.626480 
	C41.930676,65.742958 41.930676,58.508377 41.930676,50.855427 
	C43.904396,50.855427 45.499332,50.855427 47.544281,50.921265 
	C44.023037,51.955685 42.668285,54.380100 42.893913,58.501286 
	C43.144001,63.069279 42.574856,67.682121 42.146561,72.626480 
z"/>
<path fill="#4A69AB" opacity="1.000000" stroke="none" 
	d="
M148.707489,55.361595 
	C149.194092,51.289383 151.509506,49.087494 154.803146,50.190693 
	C156.891357,50.890141 158.784805,53.559704 159.748795,55.785995 
	C160.515076,57.555691 160.019913,60.052170 159.582108,62.119522 
	C158.956085,65.075546 156.921692,66.535950 153.767273,66.341934 
	C150.525757,66.142563 148.997864,64.341957 148.793137,61.267742 
	C148.672195,59.451691 148.702286,57.625584 148.707489,55.361595 
z"/>
<path fill="#4B69AC" opacity="1.000000" stroke="none" 
	d="
M64.904236,50.920555 
	C66.812996,51.911594 69.394051,52.652966 69.692703,53.928673 
	C70.349739,56.735226 70.309433,59.920254 69.639259,62.732910 
	C69.296242,64.172539 67.095200,65.884834 65.530502,66.119881 
	C63.916649,66.362312 60.660805,65.144417 60.542519,64.246674 
	C60.006611,60.179401 60.204830,55.990128 60.521191,51.874161 
	C60.553539,51.453354 63.139980,51.228859 64.904236,50.920555 
z"/>
<path fill="#4967AB" opacity="1.000000" stroke="none" 
	d="
M70.539055,70.671844 
	C70.326790,70.688652 70.255386,70.591095 70.183990,70.493538 
	C70.349297,70.514862 70.514610,70.536179 70.539055,70.671844 
z"/>
<path fill="#4B69AB" opacity="1.000000" stroke="none" 
	d="
M119.135025,49.913136 
	C120.565796,49.454910 121.990486,48.650360 122.683937,49.065956 
	C124.334251,50.055008 125.638809,51.620987 127.083046,52.953888 
	C125.672562,53.707699 124.301155,54.972492 122.841560,55.084106 
	C121.074234,55.219261 119.232330,54.379177 117.422699,53.961105 
	C117.880646,52.681232 118.338585,51.401363 119.135025,49.913136 
z"/>
<path fill="#4B69AC" opacity="1.000000" stroke="none" 
	d="
M186.994904,66.341255 
	C184.792862,64.722221 181.706009,63.225250 181.526596,61.436653 
	C181.189423,58.074944 181.819733,54.166935 183.394409,51.201038 
	C184.718399,48.707287 191.415268,51.140858 192.132126,54.122406 
	C193.658737,60.471859 192.003174,64.763680 186.994904,66.341255 
z"/>
<path fill="#4968AB" opacity="1.000000" stroke="none" 
	d="
M215.942596,50.876366 
	C219.502167,49.445763 223.332077,49.016972 224.046265,52.968609 
	C224.753021,56.879166 224.413818,61.568356 222.795563,65.125366 
	C221.470352,68.038200 214.766129,66.412689 214.451157,63.083416 
	C214.081238,59.173241 215.162369,55.125790 215.942596,50.876366 
z"/>
</svg>