<svg version="1.1" id="Layer_1" xmlns="http://www.w3.org/2000/svg" xmlns:xlink="http://www.w3.org/1999/xlink" x="0px" y="0px"
	 width="100%" viewBox="0 0 500 500" enable-background="new 0 0 500 500" xml:space="preserve">
<path fill="#FFFEFE" opacity="1.000000" stroke="none" 
	d="
M296.000000,501.000000 
	C197.333359,501.000000 99.166710,501.000000 1.000053,501.000000 
	C1.000035,334.333405 1.000035,167.666794 1.000018,1.000142 
	C167.666565,1.000095 334.333130,1.000095 500.999756,1.000047 
	C500.999847,167.666519 500.999847,334.333038 500.999939,500.999786 
	C432.833344,501.000000 364.666656,501.000000 296.000000,501.000000 
M346.609344,269.080139 
	C346.425171,255.661774 346.278870,242.242538 345.969879,228.827042 
	C345.949768,227.953613 344.680847,227.108948 343.337128,226.050812 
	C342.892914,226.127518 342.448700,226.204224 341.166748,226.037170 
	C338.884857,226.037170 336.602966,226.037170 334.156097,226.037170 
	C334.156097,241.782425 334.088074,257.161255 334.197510,272.538818 
	C334.230408,277.155060 337.277435,280.267853 341.084656,281.956757 
	C345.448151,283.892517 351.312622,281.366058 355.701538,276.539490 
	C356.312988,276.906006 356.924469,277.272522 357.468109,278.243652 
	C357.623962,278.824615 357.779816,279.405548 357.754089,280.476837 
	C360.177155,280.679779 362.600220,280.882721 365.694275,281.240723 
	C366.132324,281.139709 366.570343,281.038696 367.479095,281.094299 
	C367.688263,279.525024 368.072937,277.956421 368.078857,276.386383 
	C368.125824,263.936096 368.100464,251.485519 368.097900,239.035034 
	C368.097015,234.769501 368.097778,230.503983 368.097778,226.105621 
	C363.462067,226.105621 359.411255,226.105621 354.935547,226.105621 
	C354.935547,228.532471 354.951050,230.659500 354.932983,232.786240 
	C354.824402,245.560287 354.708099,258.334290 354.016754,271.453705 
	C353.705627,271.774506 353.394531,272.095306 352.519684,272.450653 
	C352.038086,272.733917 351.556488,273.017181 350.269775,273.237976 
	C349.283997,272.866974 348.298248,272.495972 347.322601,271.542572 
	C347.073608,271.034271 346.824615,270.526001 346.609344,269.080139 
M326.793579,215.687454 
	C329.451569,215.708038 332.143280,215.976578 334.750275,215.622070 
	C335.735565,215.488083 336.525177,213.914841 337.676636,212.177597 
	C337.595490,210.468933 337.514343,208.760269 337.446533,206.339310 
	C328.760803,206.094437 320.075775,205.821152 311.389038,205.618423 
	C307.829193,205.535339 304.265778,205.604675 300.435699,205.604675 
	C300.435699,208.638214 300.076111,211.024612 300.599060,213.198715 
	C300.833588,214.173843 302.835083,214.723984 304.662201,215.692383 
	C306.112274,215.601242 307.562347,215.510101 309.744720,214.949249 
	C309.636475,214.680206 309.528259,214.411163 309.488678,214.174271 
	C309.488678,214.174271 309.536407,214.233154 309.716858,215.302902 
	C312.498383,215.589447 312.912964,217.313690 312.892029,219.794724 
	C312.784576,232.548203 312.842712,245.303101 312.842926,258.057495 
	C312.843048,265.639008 312.842926,273.220520 312.842926,281.135040 
	C316.539978,281.135040 319.796906,281.135040 323.863617,281.279602 
	C324.385345,279.741943 325.349426,278.207855 325.361908,276.666077 
	C325.526062,256.392914 325.556030,236.118652 325.893585,215.868958 
	C325.893585,215.868958 325.887970,215.593964 326.793579,215.687454 
M298.518646,226.113647 
	C298.054932,226.171432 297.591248,226.229218 296.383453,226.009430 
	C294.758636,226.009430 293.133820,226.009430 291.006195,226.009430 
	C291.006195,228.569962 291.005310,230.696167 291.006317,232.822372 
	C291.011627,243.969055 290.905609,255.117554 291.086212,266.261383 
	C291.146057,269.955261 290.148712,272.919098 286.320007,273.089722 
	C281.822937,273.290070 282.440857,269.251953 282.405945,266.472198 
	C282.263855,255.160965 282.349609,243.846863 282.351288,232.533813 
	C282.351593,230.450256 282.351318,228.366699 282.351318,226.318542 
	C277.740265,226.318542 273.853973,226.318542 269.687408,226.318542 
	C269.687408,235.134018 269.594910,243.608185 269.716187,252.079269 
	C269.815704,259.032318 270.169373,265.981720 270.349823,273.659485 
	C272.024567,280.259338 274.997528,282.386536 282.594116,282.197632 
	C283.104156,281.941681 283.614166,281.685699 284.752380,281.287415 
	C285.204926,280.928406 285.657440,280.569397 286.786652,280.195709 
	C287.622253,279.597321 288.457855,278.998932 289.262543,278.269226 
	C289.262543,278.269226 289.393738,278.300781 290.073730,278.084137 
	C290.834839,277.372772 291.595947,276.661377 292.616943,275.707092 
	C293.134613,277.807343 293.517944,279.362549 293.927307,281.023346 
	C297.202606,281.023346 300.272034,281.023346 303.556274,281.023346 
	C303.556274,262.716705 303.556274,244.686401 303.556274,226.077789 
	C301.982635,226.163681 300.590057,226.239685 298.518646,226.113647 
M375.249329,260.499634 
	C375.249329,267.270691 375.249329,274.041748 375.249329,281.202423 
	C379.963135,280.577332 385.071472,284.036652 387.251251,277.433990 
	C396.924408,284.794891 405.687439,283.467651 408.264252,273.814850 
	C411.922913,260.109344 411.576691,246.038345 408.424438,232.260620 
	C406.768463,225.022720 398.897003,222.647171 392.348480,226.657532 
	C390.855621,227.571732 389.538818,228.773392 387.354950,230.444107 
	C387.354950,220.814804 387.354950,211.966797 387.354950,203.180328 
	C382.988159,203.180328 379.270172,203.180328 375.249390,203.180328 
	C375.249390,222.209137 375.249390,240.854446 375.249329,260.499634 
M204.650223,255.331818 
	C204.650223,263.795319 204.650223,272.258820 204.650223,281.003540 
	C209.277725,281.003540 213.184052,281.003540 218.079361,281.003540 
	C213.750671,254.330841 226.555908,230.937576 231.616135,205.632095 
	C228.721100,205.632095 226.216904,205.914612 223.803772,205.566299 
	C220.127014,205.035583 218.976562,206.651459 218.290359,210.027771 
	C216.282913,219.905243 213.897934,229.705978 211.385773,240.745773 
	C210.639053,238.678406 210.218857,237.832718 210.028183,236.938110 
	C208.051117,227.662369 206.182220,218.362564 204.079285,209.115829 
	C203.784409,207.819199 202.504150,205.898697 201.488678,205.769379 
	C198.147476,205.343857 194.718277,205.609268 191.619843,205.609268 
	C191.319077,206.599854 191.199921,206.773590 191.235962,206.904602 
	C195.604141,222.778381 199.983795,238.649002 204.650223,255.331818 
M231.105499,274.273102 
	C235.013535,280.970856 240.814392,283.341644 249.934753,281.968536 
	C256.709869,280.948517 261.422546,277.348114 261.970215,269.939423 
	C262.785278,258.913483 262.896790,247.689377 261.750183,236.712296 
	C260.881165,228.392654 255.082245,224.952011 246.387329,224.911057 
	C237.317520,224.868347 231.761230,228.363708 230.126373,236.518768 
	C227.655838,248.842422 227.456192,261.284027 231.105499,274.273102 
M431.023193,224.950119 
	C424.167328,225.373047 418.965393,228.460876 417.448242,235.336258 
	C414.768799,247.478531 414.720673,259.778656 417.481049,271.943665 
	C418.733398,277.462830 422.485565,280.989380 428.170471,281.803711 
	C434.596039,282.724121 440.958710,282.558533 445.617096,277.049469 
	C448.552490,273.578033 449.200439,269.451935 448.203125,264.800720 
	C444.666473,264.579529 441.416931,264.376312 437.951294,264.159576 
	C437.637756,266.064362 437.803162,267.779358 437.066406,268.902557 
	C435.939880,270.619873 434.190765,271.928772 432.705933,273.411011 
	C431.311554,271.835144 429.057343,270.427643 428.708771,268.647034 
	C428.060486,265.335449 428.522797,261.806458 428.522797,257.868134 
	C435.264465,257.868134 441.853271,257.868134 448.683105,257.868134 
	C448.683105,251.606674 449.127319,245.800400 448.589600,240.086533 
	C447.505768,228.569717 443.458282,225.147049 431.023193,224.950119 
M60.472889,283.095490 
	C64.925552,284.254333 69.344139,286.241608 73.836861,286.426392 
	C91.791946,287.164795 109.769516,287.594482 127.739876,287.634186 
	C138.543549,287.658081 149.375168,287.062927 160.146317,286.168823 
	C169.652985,285.379639 175.135818,280.519531 176.609253,271.532593 
	C179.701157,252.674164 179.704712,233.730682 176.476532,214.875946 
	C175.155014,207.157471 170.272293,202.292236 162.453186,201.345383 
	C154.044418,200.327103 145.550613,199.414902 137.099289,199.460175 
	C115.141075,199.577774 93.171661,199.909729 71.235146,200.832169 
	C59.769386,201.314301 54.725212,206.113266 53.106674,217.078033 
	C50.393757,235.456665 50.378490,253.944962 53.633175,272.248322 
	C54.295277,275.971802 57.734863,279.201324 60.472889,283.095490 
z"/>
<path fill="#2E2E2E" opacity="1.000000" stroke="none" 
	d="
M375.249359,259.999695 
	C375.249390,240.854446 375.249390,222.209137 375.249390,203.180328 
	C379.270172,203.180328 382.988159,203.180328 387.354950,203.180328 
	C387.354950,211.966797 387.354950,220.814804 387.354950,230.444107 
	C389.538818,228.773392 390.855621,227.571732 392.348480,226.657532 
	C398.897003,222.647171 406.768463,225.022720 408.424438,232.260620 
	C411.576691,246.038345 411.922913,260.109344 408.264252,273.814850 
	C405.687439,283.467651 396.924408,284.794891 387.251251,277.433990 
	C385.071472,284.036652 379.963135,280.577332 375.249329,281.202423 
	C375.249329,274.041748 375.249329,267.270691 375.249359,259.999695 
M397.433014,264.770721 
	C397.301727,256.163971 397.410736,247.541290 396.842438,238.963470 
	C396.724518,237.183990 394.092957,235.571045 392.619843,233.881348 
	C390.877747,235.644745 387.723389,237.336060 387.629089,239.183578 
	C387.122589,249.106415 387.207581,259.074249 387.565491,269.009369 
	C387.615295,270.390900 390.166077,272.462677 391.819336,272.757996 
	C393.129669,272.992065 395.156586,271.255615 396.266632,269.902863 
	C397.105530,268.880493 396.998962,267.082275 397.433014,264.770721 
z"/>
<path fill="#2F2F2F" opacity="1.000000" stroke="none" 
	d="
M204.506531,254.925812 
	C199.983795,238.649002 195.604141,222.778381 191.235962,206.904602 
	C191.199921,206.773590 191.319077,206.599854 191.619843,205.609268 
	C194.718277,205.609268 198.147476,205.343857 201.488678,205.769379 
	C202.504150,205.898697 203.784409,207.819199 204.079285,209.115829 
	C206.182220,218.362564 208.051117,227.662369 210.028183,236.938110 
	C210.218857,237.832718 210.639053,238.678406 211.385773,240.745773 
	C213.897934,229.705978 216.282913,219.905243 218.290359,210.027771 
	C218.976562,206.651459 220.127014,205.035583 223.803772,205.566299 
	C226.216904,205.914612 228.721100,205.632095 231.616135,205.632095 
	C226.555908,230.937576 213.750671,254.330841 218.079361,281.003540 
	C213.184052,281.003540 209.277725,281.003540 204.650223,281.003540 
	C204.650223,272.258820 204.650223,263.795319 204.506531,254.925812 
z"/>
<path fill="#2C2C2C" opacity="1.000000" stroke="none" 
	d="
M230.949142,273.927063 
	C227.456192,261.284027 227.655838,248.842422 230.126373,236.518768 
	C231.761230,228.363708 237.317520,224.868347 246.387329,224.911057 
	C255.082245,224.952011 260.881165,228.392654 261.750183,236.712296 
	C262.896790,247.689377 262.785278,258.913483 261.970215,269.939423 
	C261.422546,277.348114 256.709869,280.948517 249.934753,281.968536 
	C240.814392,283.341644 235.013535,280.970856 230.949142,273.927063 
M249.237595,235.637299 
	C245.297516,232.460709 242.285477,233.262131 242.011139,238.331177 
	C241.466675,248.390701 241.596024,258.502960 241.925491,268.577728 
	C241.981369,270.286530 244.426224,271.917175 245.767365,273.583923 
	C247.239258,271.885925 249.948853,270.210968 249.980972,268.486176 
	C250.180511,257.770844 249.779510,247.044327 249.237595,235.637299 
z"/>
<path fill="#2F2F2F" opacity="1.000000" stroke="none" 
	d="
M431.420135,224.926407 
	C443.458282,225.147049 447.505768,228.569717 448.589600,240.086533 
	C449.127319,245.800400 448.683105,251.606674 448.683105,257.868134 
	C441.853271,257.868134 435.264465,257.868134 428.522797,257.868134 
	C428.522797,261.806458 428.060486,265.335449 428.708771,268.647034 
	C429.057343,270.427643 431.311554,271.835144 432.705933,273.411011 
	C434.190765,271.928772 435.939880,270.619873 437.066406,268.902557 
	C437.803162,267.779358 437.637756,266.064362 437.951294,264.159576 
	C441.416931,264.376312 444.666473,264.579529 448.203125,264.800720 
	C449.200439,269.451935 448.552490,273.578033 445.617096,277.049469 
	C440.958710,282.558533 434.596039,282.724121 428.170471,281.803711 
	C422.485565,280.989380 418.733398,277.462830 417.481049,271.943665 
	C414.720673,259.778656 414.768799,247.478531 417.448242,235.336258 
	C418.965393,228.460876 424.167328,225.373047 431.420135,224.926407 
M437.034698,240.878113 
	C436.948181,240.052246 436.897552,239.220734 436.768555,238.401550 
	C436.359131,235.802094 435.548523,232.888443 432.390808,233.648621 
	C430.774719,234.037674 428.875732,236.606827 428.582092,238.428757 
	C427.989227,242.107361 428.405426,245.948608 428.405426,249.975571 
	C431.318726,249.975571 434.018097,249.975571 437.067169,249.975571 
	C437.067169,247.044449 437.067169,244.417725 437.034698,240.878113 
z"/>
<path fill="#2F2F2F" opacity="1.000000" stroke="none" 
	d="
M270.410400,272.932739 
	C270.169373,265.981720 269.815704,259.032318 269.716187,252.079269 
	C269.594910,243.608185 269.687408,235.134018 269.687408,226.318542 
	C273.853973,226.318542 277.740265,226.318542 282.351318,226.318542 
	C282.351318,228.366699 282.351593,230.450256 282.351288,232.533813 
	C282.349609,243.846863 282.263855,255.160965 282.405945,266.472198 
	C282.440857,269.251953 281.822937,273.290070 286.320007,273.089722 
	C290.148712,272.919098 291.146057,269.955261 291.086212,266.261383 
	C290.905609,255.117554 291.011627,243.969055 291.006317,232.822372 
	C291.005310,230.696167 291.006195,228.569962 291.006195,226.009430 
	C293.133820,226.009430 294.758636,226.009430 296.833496,226.493439 
	C297.921478,226.756866 298.559479,226.536270 299.197449,226.315674 
	C300.590057,226.239685 301.982635,226.163681 303.556274,226.077789 
	C303.556274,244.686401 303.556274,262.716705 303.556274,281.023346 
	C300.272034,281.023346 297.202606,281.023346 293.927307,281.023346 
	C293.517944,279.362549 293.134613,277.807343 292.616943,275.707092 
	C291.595947,276.661377 290.834839,277.372772 289.605957,277.888306 
	C288.745789,277.293365 288.353394,276.894287 287.960999,276.495209 
	C287.816956,276.716370 287.530365,277.117218 287.549683,277.132507 
	C288.112213,277.578796 288.705292,277.986603 289.293457,278.400574 
	C288.457855,278.998932 287.622253,279.597321 286.262817,279.934265 
	C285.200745,280.258484 284.662476,280.844116 284.124207,281.429749 
	C283.614166,281.685699 283.104156,281.941681 282.260468,281.723083 
	C281.450348,280.621185 280.977631,279.451233 280.496857,279.447937 
	C273.371857,279.398560 271.839813,274.739136 271.481506,268.896759 
	C271.124481,270.242096 270.767426,271.587402 270.410400,272.932739 
M280.998871,241.522736 
	C280.998871,237.743393 280.998871,233.964050 280.998871,230.184723 
	C280.773468,230.197983 280.548096,230.211243 280.322693,230.224503 
	C280.322693,242.743408 280.322693,255.262299 280.322693,267.781189 
	C280.548065,267.780792 280.773468,267.780396 280.998840,267.779999 
	C280.998840,259.358490 280.998840,250.936966 280.998871,241.522736 
M297.045380,279.981720 
	C298.018066,279.878845 298.990753,279.776001 299.963440,279.673157 
	C299.885010,279.372955 299.806580,279.072723 299.728149,278.772522 
	C298.624634,279.153259 297.521088,279.533997 297.045380,279.981720 
M271.521606,232.400482 
	C271.521606,232.400482 271.595764,232.522949 271.521606,232.400482 
M271.602966,229.516815 
	C271.602966,229.516815 271.482574,229.593567 271.602966,229.516815 
z"/>
<path fill="#D75547" opacity="1.000000" stroke="none" 
	d="
M60.183472,282.877014 
	C57.734863,279.201324 54.295277,275.971802 53.633175,272.248322 
	C50.378490,253.944962 50.393757,235.456665 53.106674,217.078033 
	C54.725212,206.113266 59.769386,201.314301 71.235146,200.832169 
	C93.171661,199.909729 115.141075,199.577774 137.099289,199.460175 
	C145.550613,199.414902 154.044418,200.327103 162.453186,201.345383 
	C170.272293,202.292236 175.155014,207.157471 176.476532,214.875946 
	C179.704712,233.730682 179.701157,252.674164 176.609253,271.532593 
	C175.135818,280.519531 169.652985,285.379639 160.146317,286.168823 
	C149.375168,287.062927 138.543549,287.658081 127.739876,287.634186 
	C109.769516,287.594482 91.791946,287.164795 73.836861,286.426392 
	C69.344139,286.241608 64.925552,284.254333 60.183472,282.877014 
M96.610268,200.977051 
	C91.820618,201.301941 87.030792,201.624252 82.241364,201.952423 
	C77.121773,202.303192 71.860718,202.044052 66.922089,203.182220 
	C61.726486,204.379623 57.601231,207.313309 55.628624,213.137039 
	C52.860405,221.309692 54.132137,229.545181 53.956253,237.756927 
	C53.765419,246.666977 53.588341,255.606094 54.092068,264.493622 
	C54.539406,272.386292 55.974434,280.624237 65.039764,283.193207 
	C71.319389,284.972809 78.066452,285.838348 84.604721,285.838684 
	C109.039833,285.839966 133.514999,286.019073 157.889587,284.629913 
	C167.111389,284.104370 172.345825,282.007690 174.060043,271.812531 
	C174.816574,267.313049 175.855545,262.816284 176.090729,258.283203 
	C176.597748,248.510712 177.109131,238.699219 176.747757,228.935913 
	C176.537064,223.243713 175.462738,217.259171 173.221268,212.079376 
	C171.702759,208.570236 167.855789,204.450928 164.392014,203.718903 
	C155.639847,201.869263 146.528671,201.350693 137.538025,201.083893 
	C124.231133,200.688995 110.904099,200.973022 96.610268,200.977051 
z"/>
<path fill="#2D2D2D" opacity="1.000000" stroke="none" 
	d="
M347.312469,272.124969 
	C348.298248,272.495972 349.283997,272.866974 350.834015,273.456940 
	C351.959961,273.255951 352.521667,272.835999 353.083435,272.416077 
	C353.394531,272.095306 353.705627,271.774506 354.652222,271.117981 
	C355.535187,269.187836 355.987518,267.594666 355.997162,265.998779 
	C356.063416,255.032532 356.037170,244.065689 356.040466,233.099045 
	C356.041046,231.182556 356.040527,229.266083 356.040527,227.339294 
	C360.070923,227.339294 363.299530,227.339294 367.008392,227.339294 
	C367.008392,245.450500 367.008392,263.194092 367.008392,280.937653 
	C366.570343,281.038696 366.132324,281.139709 365.132050,280.900879 
	C362.358459,280.369537 360.147064,280.178009 357.935669,279.986511 
	C357.779816,279.405548 357.623962,278.824615 357.632019,277.571045 
	C357.421265,276.282288 357.046600,275.666107 356.671936,275.049957 
	C356.097443,275.661560 355.522919,276.273132 354.948395,276.884705 
	C351.312622,281.366058 345.448151,283.892517 341.084656,281.956757 
	C337.277435,280.267853 334.230408,277.155060 334.197510,272.538818 
	C334.088074,257.161255 334.156097,241.782425 334.156097,226.037170 
	C336.602966,226.037170 338.884857,226.037170 341.573242,226.519196 
	C341.702332,227.572418 341.507782,228.578125 341.135101,228.649170 
	C336.120544,229.605164 335.776428,233.079987 335.943481,237.277847 
	C336.443665,249.848465 336.644226,262.431213 337.183380,274.999695 
	C337.227478,276.027069 338.952515,276.982300 340.724609,278.838470 
	C340.724609,275.969543 340.724609,274.618134 340.724609,273.638031 
	C342.767944,272.959015 344.426819,272.407745 346.288330,271.913025 
	C346.749847,272.100555 347.023682,272.152344 347.312469,272.124969 
z"/>
<path fill="#292929" opacity="1.000000" stroke="none" 
	d="
M337.433197,207.051605 
	C337.514343,208.760269 337.595490,210.468933 337.120514,212.589783 
	C334.098663,213.001892 331.587830,212.725845 329.186157,213.118073 
	C327.984039,213.314407 326.981018,214.729874 325.887939,215.593964 
	C325.887970,215.593964 325.893585,215.868958 325.495972,215.865097 
	C324.754486,215.909470 324.410645,215.957703 323.751251,216.285645 
	C323.289581,217.697495 323.016724,218.829559 323.016174,219.961777 
	C323.006866,239.311340 323.031189,258.660919 323.039978,278.022491 
	C323.031830,278.034485 323.043365,278.061157 322.644165,277.994568 
	C319.819214,277.610565 317.393433,277.293182 314.963928,276.508636 
	C314.960236,257.213745 315.042084,238.385040 314.831879,219.559616 
	C314.811188,217.704941 313.000549,215.870270 311.902283,213.795105 
	C311.506744,213.363342 311.229645,213.162796 310.956665,212.598373 
	C310.623138,210.836441 310.285522,209.438385 310.367126,208.027191 
	C313.532928,208.349442 316.279510,208.684814 319.043396,209.310913 
	C319.369141,210.057968 319.677582,210.514328 320.112305,211.263474 
	C320.854370,212.245193 321.470154,212.934128 322.085968,213.623077 
	C322.302399,213.459534 322.518860,213.296005 322.735321,213.132462 
	C322.235748,211.677719 321.736176,210.222992 321.363312,209.137238 
	C326.410400,208.393433 331.219086,207.684784 336.262512,206.983887 
	C336.806763,207.050308 337.118744,207.070297 337.433197,207.051605 
z"/>
<path fill="#292929" opacity="1.000000" stroke="none" 
	d="
M346.085693,271.856476 
	C344.426819,272.407745 342.767944,272.959015 340.724609,273.638031 
	C340.724609,274.618134 340.724609,275.969543 340.724609,278.838470 
	C338.952515,276.982300 337.227478,276.027069 337.183380,274.999695 
	C336.644226,262.431213 336.443665,249.848465 335.943481,237.277847 
	C335.776428,233.079987 336.120544,229.605164 341.135101,228.649170 
	C341.507782,228.578125 341.702332,227.572418 341.992096,226.641083 
	C342.448700,226.204224 342.892914,226.127518 343.667145,226.603027 
	C343.999390,239.925552 343.942383,252.696548 344.082489,265.465363 
	C344.099091,266.978973 345.193970,268.480774 345.858948,270.296692 
	C345.981171,271.022369 346.033447,271.439423 346.085693,271.856476 
z"/>
<path fill="#515151" opacity="1.000000" stroke="none" 
	d="
M367.243744,281.015991 
	C367.008392,263.194092 367.008392,245.450500 367.008392,227.339294 
	C363.299530,227.339294 360.070923,227.339294 356.040527,227.339294 
	C356.040527,229.266083 356.041046,231.182556 356.040466,233.099045 
	C356.037170,244.065689 356.063416,255.032532 355.997162,265.998779 
	C355.987518,267.594666 355.535187,269.187836 354.941040,270.945282 
	C354.708099,258.334290 354.824402,245.560287 354.932983,232.786240 
	C354.951050,230.659500 354.935547,228.532471 354.935547,226.105621 
	C359.411255,226.105621 363.462067,226.105621 368.097778,226.105621 
	C368.097778,230.503983 368.097015,234.769501 368.097900,239.035034 
	C368.100464,251.485519 368.125824,263.936096 368.078857,276.386383 
	C368.072937,277.956421 367.688263,279.525024 367.243744,281.015991 
z"/>
<path fill="#393939" opacity="1.000000" stroke="none" 
	d="
M312.020691,214.026321 
	C313.000549,215.870270 314.811188,217.704941 314.831879,219.559616 
	C315.042084,238.385040 314.960236,257.213745 314.972290,276.921600 
	C316.589050,282.281799 320.473663,278.937500 323.031738,280.393799 
	C323.031952,280.641052 323.053833,281.135040 323.053833,281.135040 
	C319.796906,281.135040 316.539978,281.135040 312.842926,281.135040 
	C312.842926,273.220520 312.843048,265.639008 312.842926,258.057495 
	C312.842712,245.303101 312.784576,232.548203 312.892029,219.794724 
	C312.912964,217.313690 312.498383,215.589447 310.248657,214.722717 
	C311.193878,214.103790 311.607300,214.065048 312.020691,214.026321 
z"/>
<path fill="#393939" opacity="1.000000" stroke="none" 
	d="
M337.439880,206.695465 
	C337.118744,207.070297 336.806763,207.050308 335.790466,206.982544 
	C325.439056,206.973434 315.794434,206.973434 306.149780,206.973434 
	C306.151123,207.329071 306.152435,207.684692 306.153748,208.040329 
	C307.418457,208.040329 308.683197,208.040329 309.947906,208.040329 
	C310.285522,209.438385 310.623138,210.836441 310.678101,212.761719 
	C310.070282,213.573318 309.745148,213.857712 309.420013,214.142120 
	C309.528259,214.411163 309.636475,214.680206 309.369202,214.721741 
	C306.891815,212.529800 304.942047,211.341003 304.034790,215.466980 
	C302.835083,214.723984 300.833588,214.173843 300.599060,213.198715 
	C300.076111,211.024612 300.435699,208.638214 300.435699,205.604675 
	C304.265778,205.604675 307.829193,205.535339 311.389038,205.618423 
	C320.075775,205.821152 328.760803,206.094437 337.439880,206.695465 
z"/>
<path fill="#424242" opacity="1.000000" stroke="none" 
	d="
M323.458740,281.207336 
	C323.053833,281.135040 323.031952,280.641052 323.059753,280.044678 
	C323.072845,278.985901 323.058105,278.523529 323.043365,278.061157 
	C323.043365,278.061157 323.031830,278.034485 323.343933,277.734375 
	C323.781982,275.620605 324.013824,273.807129 324.017487,271.993195 
	C324.055115,253.330811 324.055786,234.668365 324.066772,216.005920 
	C324.410645,215.957703 324.754486,215.909470 325.359009,215.852951 
	C325.556030,236.118652 325.526062,256.392914 325.361908,276.666077 
	C325.349426,278.207855 324.385345,279.741943 323.458740,281.207336 
z"/>
<path fill="#2D2D2D" opacity="1.000000" stroke="none" 
	d="
M345.789032,269.988037 
	C345.193970,268.480774 344.099091,266.978973 344.082489,265.465363 
	C343.942383,252.696548 343.999390,239.925552 343.994995,226.703064 
	C344.680847,227.108948 345.949768,227.953613 345.969879,228.827042 
	C346.278870,242.242538 346.425171,255.661774 346.397644,269.493744 
	C346.185913,269.907349 345.789032,269.988037 345.789032,269.988037 
z"/>
<path fill="#1F1F1F" opacity="1.000000" stroke="none" 
	d="
M270.380127,273.296112 
	C270.767426,271.587402 271.124481,270.242096 271.481506,268.896759 
	C271.839813,274.739136 273.371857,279.398560 280.496857,279.447937 
	C280.977631,279.451233 281.450348,280.621185 281.963135,281.621826 
	C274.997528,282.386536 272.024567,280.259338 270.380127,273.296112 
z"/>
<path fill="#242424" opacity="1.000000" stroke="none" 
	d="
M326.340759,215.640701 
	C326.981018,214.729874 327.984039,213.314407 329.186157,213.118073 
	C331.587830,212.725845 334.098663,213.001892 336.984192,212.999817 
	C336.525177,213.914841 335.735565,215.488083 334.750275,215.622070 
	C332.143280,215.976578 329.451569,215.708038 326.340759,215.640701 
z"/>
<path fill="#515151" opacity="1.000000" stroke="none" 
	d="
M357.844910,280.231659 
	C360.147064,280.178009 362.358459,280.369537 364.796570,280.823364 
	C362.600220,280.882721 360.177155,280.679779 357.844910,280.231659 
z"/>
<path fill="#242424" opacity="1.000000" stroke="none" 
	d="
M304.348511,215.579681 
	C304.942047,211.341003 306.891815,212.529800 309.003052,214.956604 
	C307.562347,215.510101 306.112274,215.601242 304.348511,215.579681 
z"/>
<path fill="#515151" opacity="1.000000" stroke="none" 
	d="
M355.324951,276.712097 
	C355.522919,276.273132 356.097443,275.661560 356.671936,275.049957 
	C357.046600,275.666107 357.421265,276.282288 357.665894,277.268738 
	C356.924469,277.272522 356.312988,276.906006 355.324951,276.712097 
z"/>
<path fill="#515151" opacity="1.000000" stroke="none" 
	d="
M345.858948,270.296692 
	C345.789032,269.988037 346.185913,269.907349 346.380768,269.962524 
	C346.824615,270.526001 347.073608,271.034271 347.317535,271.833771 
	C347.023682,272.152344 346.749847,272.100555 346.288361,271.913025 
	C346.033447,271.439423 345.981171,271.022369 345.858948,270.296692 
z"/>
<path fill="#515151" opacity="1.000000" stroke="none" 
	d="
M352.801544,272.433350 
	C352.521667,272.835999 351.959961,273.255951 351.236572,273.488159 
	C351.556488,273.017181 352.038086,272.733917 352.801544,272.433350 
z"/>
<path fill="#1F1F1F" opacity="1.000000" stroke="none" 
	d="
M284.438293,281.358582 
	C284.662476,280.844116 285.200745,280.258484 285.924469,279.941589 
	C285.657440,280.569397 285.204926,280.928406 284.438293,281.358582 
z"/>
<path fill="#242424" opacity="1.000000" stroke="none" 
	d="
M309.454346,214.158188 
	C309.745148,213.857712 310.070282,213.573318 310.674011,213.125580 
	C311.229645,213.162796 311.506744,213.363342 311.902283,213.795105 
	C311.607300,214.065048 311.193878,214.103790 310.158447,214.187836 
	C309.536407,214.233154 309.488678,214.174271 309.454346,214.158188 
z"/>
<path fill="#1F1F1F" opacity="1.000000" stroke="none" 
	d="
M298.858032,226.214661 
	C298.559479,226.536270 297.921478,226.756866 297.205505,226.632233 
	C297.591248,226.229218 298.054932,226.171432 298.858032,226.214661 
z"/>
<path fill="#EDEDED" opacity="1.000000" stroke="none" 
	d="
M397.373077,265.200043 
	C396.998962,267.082275 397.105530,268.880493 396.266632,269.902863 
	C395.156586,271.255615 393.129669,272.992065 391.819336,272.757996 
	C390.166077,272.462677 387.615295,270.390900 387.565491,269.009369 
	C387.207581,259.074249 387.122589,249.106415 387.629089,239.183578 
	C387.723389,237.336060 390.877747,235.644745 392.619843,233.881348 
	C394.092957,235.571045 396.724518,237.183990 396.842438,238.963470 
	C397.410736,247.541290 397.301727,256.163971 397.373077,265.200043 
z"/>
<path fill="#EDEDED" opacity="1.000000" stroke="none" 
	d="
M249.407669,235.979416 
	C249.779510,247.044327 250.180511,257.770844 249.980972,268.486176 
	C249.948853,270.210968 247.239258,271.885925 245.767365,273.583923 
	C244.426224,271.917175 241.981369,270.286530 241.925491,268.577728 
	C241.596024,258.502960 241.466675,248.390701 242.011139,238.331177 
	C242.285477,233.262131 245.297516,232.460709 249.407669,235.979416 
z"/>
<path fill="#EDEDED" opacity="1.000000" stroke="none" 
	d="
M437.050934,241.334549 
	C437.067169,244.417725 437.067169,247.044449 437.067169,249.975571 
	C434.018097,249.975571 431.318726,249.975571 428.405426,249.975571 
	C428.405426,245.948608 427.989227,242.107361 428.582092,238.428757 
	C428.875732,236.606827 430.774719,234.037674 432.390808,233.648621 
	C435.548523,232.888443 436.359131,235.802094 436.768555,238.401550 
	C436.897552,239.220734 436.948181,240.052246 437.050934,241.334549 
z"/>
<path fill="#1F1F1F" opacity="1.000000" stroke="none" 
	d="
M280.998840,242.019089 
	C280.998840,250.936966 280.998840,259.358490 280.998840,267.779999 
	C280.773468,267.780396 280.548065,267.780792 280.322693,267.781189 
	C280.322693,255.262299 280.322693,242.743408 280.322693,230.224503 
	C280.548096,230.211243 280.773468,230.197983 280.998871,230.184723 
	C280.998871,233.964050 280.998871,237.743393 280.998840,242.019089 
z"/>
<path fill="#1F1F1F" opacity="1.000000" stroke="none" 
	d="
M296.731445,279.948242 
	C297.521088,279.533997 298.624634,279.153259 299.728149,278.772522 
	C299.806580,279.072723 299.885010,279.372955 299.963440,279.673157 
	C298.990753,279.776001 298.018066,279.878845 296.731445,279.948242 
z"/>
<path fill="#1F1F1F" opacity="1.000000" stroke="none" 
	d="
M289.278015,278.334900 
	C288.705292,277.986603 288.112213,277.578796 287.549683,277.132507 
	C287.530365,277.117218 287.816956,276.716370 287.960999,276.495209 
	C288.353394,276.894287 288.745789,277.293365 289.265961,277.996613 
	C289.393738,278.300781 289.262543,278.269226 289.278015,278.334900 
z"/>
<path fill="#1F1F1F" opacity="1.000000" stroke="none" 
	d="
M271.558685,232.461716 
	C271.595764,232.522949 271.521606,232.400482 271.558685,232.461716 
z"/>
<path fill="#1F1F1F" opacity="1.000000" stroke="none" 
	d="
M271.542786,229.555191 
	C271.482574,229.593567 271.602966,229.516815 271.542786,229.555191 
z"/>
<path fill="#EB3426" opacity="1.000000" stroke="none" 
	d="
M97.097954,200.972534 
	C110.904099,200.973022 124.231133,200.688995 137.538025,201.083893 
	C146.528671,201.350693 155.639847,201.869263 164.392014,203.718903 
	C167.855789,204.450928 171.702759,208.570236 173.221268,212.079376 
	C175.462738,217.259171 176.537064,223.243713 176.747757,228.935913 
	C177.109131,238.699219 176.597748,248.510712 176.090729,258.283203 
	C175.855545,262.816284 174.816574,267.313049 174.060043,271.812531 
	C172.345825,282.007690 167.111389,284.104370 157.889587,284.629913 
	C133.514999,286.019073 109.039833,285.839966 84.604721,285.838684 
	C78.066452,285.838348 71.319389,284.972809 65.039764,283.193207 
	C55.974434,280.624237 54.539406,272.386292 54.092068,264.493622 
	C53.588341,255.606094 53.765419,246.666977 53.956253,237.756927 
	C54.132137,229.545181 52.860405,221.309692 55.628624,213.137039 
	C57.601231,207.313309 61.726486,204.379623 66.922089,203.182220 
	C71.860718,202.044052 77.121773,202.303192 82.241364,201.952423 
	C87.030792,201.624252 91.820618,201.301941 97.097954,200.972534 
M102.589005,261.130157 
	C105.514488,259.846832 108.560425,258.780853 111.342438,257.238708 
	C119.120949,252.926880 126.790306,248.418137 135.374054,243.486481 
	C123.971931,236.956955 113.569046,230.999664 102.275864,224.532516 
	C102.275864,237.254761 102.275864,248.837067 102.589005,261.130157 
z"/>
<path fill="#242424" opacity="1.000000" stroke="none" 
	d="
M323.751251,216.285645 
	C324.055786,234.668365 324.055115,253.330811 324.017487,271.993195 
	C324.013824,273.807129 323.781982,275.620605 323.352112,277.722412 
	C323.031189,258.660919 323.006866,239.311340 323.016174,219.961777 
	C323.016724,218.829559 323.289581,217.697495 323.751251,216.285645 
z"/>
<path fill="#242424" opacity="1.000000" stroke="none" 
	d="
M310.367126,208.027191 
	C308.683197,208.040329 307.418457,208.040329 306.153748,208.040329 
	C306.152435,207.684692 306.151123,207.329071 306.149780,206.973434 
	C315.794434,206.973434 325.439056,206.973434 335.555725,206.974777 
	C331.219086,207.684784 326.410400,208.393433 321.363312,209.137238 
	C321.736176,210.222992 322.235748,211.677719 322.735321,213.132462 
	C322.518860,213.296005 322.302399,213.459534 322.085968,213.623077 
	C321.470154,212.934128 320.854370,212.245193 320.092896,210.974121 
	C319.640198,209.934723 319.333130,209.477448 319.026062,209.020172 
	C316.279510,208.684814 313.532928,208.349442 310.367126,208.027191 
z"/>
<path fill="#242424" opacity="1.000000" stroke="none" 
	d="
M322.644165,277.994568 
	C323.058105,278.523529 323.072845,278.985901 323.059540,279.797424 
	C320.473663,278.937500 316.589050,282.281799 314.976013,277.388733 
	C317.393433,277.293182 319.819214,277.610565 322.644165,277.994568 
z"/>
<path fill="#393939" opacity="1.000000" stroke="none" 
	d="
M319.043396,209.310898 
	C319.333130,209.477448 319.640198,209.934723 319.966614,210.681335 
	C319.677582,210.514328 319.369141,210.057968 319.043396,209.310898 
z"/>
<path fill="#FDF2EE" opacity="1.000000" stroke="none" 
	d="
M102.432434,260.774780 
	C102.275864,248.837067 102.275864,237.254761 102.275864,224.532516 
	C113.569046,230.999664 123.971931,236.956955 135.374054,243.486481 
	C126.790306,248.418137 119.120949,252.926880 111.342438,257.238708 
	C108.560425,258.780853 105.514488,259.846832 102.432434,260.774780 
z"/>
</svg>