<svg version="1.1" id="Layer_1" xmlns="http://www.w3.org/2000/svg" xmlns:xlink="http://www.w3.org/1999/xlink" x="0px" y="0px"
	 width="100%" viewBox="0 0 750 500" enable-background="new 0 0 750 500" xml:space="preserve">
<path fill="#D9D9D9" opacity="1.000000" stroke="none" 
	d="
M482.000000,501.000000 
	C321.333344,501.000000 161.166672,501.000000 1.000000,501.000000 
	C1.000000,334.333344 1.000000,167.666672 1.000000,1.000000 
	C251.000000,1.000000 501.000000,1.000000 751.000000,1.000000 
	C751.000000,167.666672 751.000000,334.333344 751.000000,501.000000 
	C661.500000,501.000000 572.000000,501.000000 482.000000,501.000000 
M634.725830,272.306122 
	C634.602600,271.134338 634.479431,269.962555 634.597229,268.031403 
	C634.004333,264.778870 633.693909,261.443817 632.771912,258.287384 
	C627.331055,239.659561 609.098633,225.665375 590.803223,226.468689 
	C584.252563,226.643524 577.701965,226.818375 570.477112,226.596069 
	C558.123901,226.157745 547.956787,231.490265 540.182129,240.276505 
	C522.908997,259.797058 524.367493,291.181366 545.769287,307.671906 
	C553.183228,313.384521 561.177612,318.196838 572.094910,316.286163 
	C578.983154,316.388062 585.871460,316.489960 593.613403,316.850983 
	C616.218445,315.302002 635.158691,295.068268 634.725830,272.306122 
M86.987335,225.936737 
	C89.252106,218.419968 87.642128,216.137146 79.728600,216.094711 
	C68.094719,216.032364 57.147938,218.443253 46.658508,223.897491 
	C29.015982,233.071106 18.029663,247.583817 13.590367,266.343536 
	C10.872473,277.828857 9.986838,290.116791 15.069943,301.654083 
	C17.528608,307.234558 19.666206,313.116455 23.098383,318.064789 
	C26.816319,323.425079 31.817028,327.911285 36.416145,332.624695 
	C36.984089,333.206757 38.522217,332.842102 40.022808,333.486298 
	C41.705532,334.713074 43.388256,335.939819 45.234200,337.775848 
	C58.005123,349.519897 73.221031,354.608490 90.367882,353.807404 
	C105.038582,353.121979 118.204597,348.353546 128.999771,337.999725 
	C128.999771,337.999725 128.982086,337.989838 129.609314,337.753784 
	C143.481522,325.514374 150.634964,310.000092 150.958084,291.650604 
	C151.335831,270.197754 151.049316,248.733231 151.050980,227.273773 
	C151.051102,225.543610 151.050995,223.813446 151.050995,221.179138 
	C153.455887,222.506638 154.876175,223.258698 156.266266,224.062988 
	C167.968811,230.834076 180.470581,235.077988 194.048874,235.562103 
	C195.672867,235.620026 198.767792,234.104950 198.794540,233.244705 
	C199.124191,222.651230 199.009430,212.043930 199.009430,201.050629 
	C195.462524,200.855240 192.508713,200.692520 189.066940,200.190369 
	C188.920944,200.056427 188.774933,199.922485 188.927246,199.108948 
	C189.516083,196.272980 191.065292,192.995880 186.731979,191.816772 
	C179.477295,189.842773 172.157516,188.107971 164.291321,185.924011 
	C162.980942,184.693588 161.670563,183.463150 160.372055,181.841507 
	C160.236984,181.563660 160.018356,181.457123 159.449600,181.191483 
	C159.449600,181.191483 159.149155,180.891571 159.096985,180.153824 
	C155.843552,171.443863 152.590118,162.733887 149.003326,153.131485 
	C147.670349,153.208878 144.916824,153.368774 141.540695,153.217941 
	C141.341675,153.098862 141.142639,152.979782 141.312424,152.114410 
	C141.779877,144.469864 141.435577,144.076752 133.973007,144.070786 
	C126.976303,144.065201 119.979340,144.068024 112.982903,144.120895 
	C105.590668,144.176758 105.573280,144.204498 105.564842,151.753143 
	C105.516441,195.066208 105.545250,238.379517 105.395218,281.692230 
	C105.347031,295.604309 96.820129,306.430084 83.198402,309.148499 
	C77.661583,310.253479 71.715309,309.306610 65.429611,308.857452 
	C64.204964,307.509552 62.980316,306.161621 61.758984,304.104126 
	C61.448345,303.333801 61.114021,302.572083 60.830536,301.791901 
	C52.593266,279.122223 68.567436,259.140717 92.604691,262.023682 
	C93.538628,262.135712 94.497726,262.037964 95.893135,262.037964 
	C95.893135,253.334137 95.916756,244.888748 95.886757,236.443512 
	C95.854088,227.245911 95.832397,227.245987 86.987335,225.936737 
M441.223999,304.224731 
	C431.814606,290.753448 422.405182,277.282166 413.520630,264.562317 
	C424.163147,253.112854 434.368744,242.133438 444.396820,231.345047 
	C438.493225,231.345047 431.956268,231.937119 425.573090,231.199051 
	C417.103424,230.219696 411.111084,233.223923 405.674622,239.519714 
	C400.552094,245.451965 394.466461,250.552582 387.825989,256.963806 
	C387.825989,238.937012 387.825989,222.379440 387.825989,205.587769 
	C378.786987,205.587769 370.236877,205.587769 361.522614,205.587769 
	C361.522614,242.841141 361.522614,279.759460 361.522614,316.915039 
	C370.337830,316.915039 378.947266,316.915039 388.070648,316.915039 
	C388.070648,309.279846 388.585815,301.770569 387.920227,294.367462 
	C387.302185,287.493622 391.236053,284.260468 396.093475,280.652374 
	C403.662323,291.892578 410.972382,302.798340 418.358643,313.652252 
	C419.245300,314.955170 420.516693,316.942444 421.658142,316.976196 
	C430.863068,317.248566 440.079559,317.128845 450.206268,317.128845 
	C446.931671,312.416077 444.288971,308.612732 441.223999,304.224731 
M683.084229,288.423523 
	C688.948975,297.113159 694.762573,305.838318 700.738159,314.451019 
	C701.559814,315.635223 703.167664,316.994232 704.443481,317.027008 
	C713.206238,317.251923 721.977539,317.145142 731.978394,317.145142 
	C719.236877,298.910370 707.109070,281.553894 695.286194,264.633850 
	C705.865295,253.442612 716.174927,242.536407 726.751160,231.348190 
	C719.651428,231.348190 712.535217,231.774170 705.495056,231.225281 
	C698.798096,230.703156 693.868530,232.650284 689.326782,237.697617 
	C683.515808,244.155487 676.892334,249.882263 669.709167,256.800385 
	C669.709167,238.906250 669.709167,222.353348 669.709167,205.531494 
	C660.672607,205.531494 652.110168,205.531494 643.385437,205.531494 
	C643.385437,242.809631 643.385437,279.818665 643.385437,316.817810 
	C652.325256,316.817810 660.900085,316.817810 669.889038,316.817810 
	C669.889038,309.373444 670.404968,302.199982 669.741821,295.137177 
	C669.097168,288.271942 672.254639,284.277100 677.837891,280.882538 
	C679.481567,283.219971 681.091919,285.510010 683.084229,288.423523 
M454.991089,214.566345 
	C454.991089,219.367691 454.991089,224.169037 454.991089,229.551300 
	C464.140167,229.551300 472.883545,229.551300 482.249023,229.551300 
	C482.249023,259.016144 482.249023,287.902161 482.249023,316.898376 
	C491.485229,316.898376 500.078461,316.898376 509.150146,316.898376 
	C509.150146,287.743225 509.150146,258.842743 509.150146,229.549057 
	C516.100464,229.549057 522.579041,229.648788 529.049927,229.469070 
	C530.424805,229.430862 532.647217,228.689972 532.991455,227.735962 
	C535.565308,220.603668 537.765259,213.336441 540.159119,205.872192 
	C511.505127,205.872192 483.415466,205.872192 454.991089,205.872192 
	C454.991089,208.626602 454.991089,211.110962 454.991089,214.566345 
M290.000336,289.500122 
	C290.000336,269.610046 290.000336,249.719955 290.000336,229.561722 
	C296.646423,229.561722 302.471924,229.722260 308.276764,229.447159 
	C309.702118,229.379608 311.881165,228.189453 312.313507,227.004486 
	C314.800690,220.188141 316.866852,213.218170 319.212677,205.871338 
	C291.249084,205.871338 263.874451,205.871338 236.396912,205.871338 
	C236.396912,213.781754 236.396912,221.467255 236.396912,229.574280 
	C245.397507,229.574280 253.994781,229.574280 263.151123,229.574280 
	C263.151123,258.872192 263.151123,287.745972 263.151123,316.768677 
	C272.421173,316.768677 281.120697,316.768677 289.999725,316.768677 
	C289.999725,307.770233 289.999725,299.135223 290.000336,289.500122 
M351.011444,303.491547 
	C351.011444,282.779510 351.011444,262.067444 351.011444,241.477829 
	C341.653229,241.477829 333.088440,241.477829 324.580688,241.477829 
	C324.580688,266.843201 324.580688,291.840759 324.580688,316.777222 
	C333.610443,316.777222 342.163086,316.777222 351.011444,316.777222 
	C351.011444,312.435303 351.011444,308.461731 351.011444,303.491547 
M334.441010,232.065750 
	C342.773376,233.066727 348.330658,229.895630 350.550385,222.873398 
	C352.403137,217.012100 349.405182,209.952957 343.882843,207.173569 
	C336.852295,203.635132 328.507233,206.470398 325.254974,213.502487 
	C321.900726,220.755112 325.398407,228.402985 334.441010,232.065750 
z"/>
<path fill="#060405" opacity="1.000000" stroke="none" 
	d="
M45.070976,337.166595 
	C43.388256,335.939819 41.705532,334.713074 39.734566,332.903870 
	C37.184513,329.334930 34.922707,326.348419 32.592903,323.002441 
	C18.676329,298.371185 21.273909,269.504913 39.226704,248.778564 
	C51.061569,235.115326 66.311745,228.311020 84.424606,226.734161 
	C85.212349,226.922607 85.660568,227.032608 86.056435,227.600494 
	C85.965271,234.858795 85.830948,241.660553 85.926201,248.459106 
	C85.977135,252.093735 84.951286,253.275330 80.952667,252.795029 
	C60.570610,250.346832 44.232555,268.455170 49.074532,288.353760 
	C50.784889,295.382629 54.028988,302.033081 61.755669,304.813690 
	C62.980316,306.161621 64.204964,307.509552 65.776794,309.381714 
	C71.079506,315.254639 77.175888,318.416107 84.438255,319.032562 
	C102.082291,320.530121 116.216408,307.649567 116.265511,289.722809 
	C116.384506,246.277832 116.310989,202.832336 116.315025,159.387054 
	C116.315208,157.459030 116.315056,155.531021 116.315056,152.860687 
	C125.038071,152.860687 132.990829,152.860687 140.943604,152.860687 
	C141.142639,152.979782 141.341675,153.098862 141.783722,153.736206 
	C143.366837,158.335175 143.892334,162.979202 146.234940,166.366592 
	C149.892700,171.655670 154.781784,176.093231 159.149155,180.891571 
	C159.149155,180.891571 159.449600,181.191483 159.582397,181.550842 
	C159.845795,182.186707 160.060791,182.294220 160.360184,182.232712 
	C161.670563,183.463150 162.980942,184.693588 164.668137,186.406570 
	C171.600800,193.575714 179.321869,198.131927 188.628906,199.788528 
	C188.774933,199.922485 188.920944,200.056427 189.091293,200.740509 
	C189.016754,208.278259 188.814178,215.266602 188.863022,222.253189 
	C188.887207,225.708969 187.434418,227.477203 184.082977,226.787552 
	C175.803162,225.083801 167.412018,223.634338 159.385803,221.077576 
	C153.209198,219.110001 147.519577,215.613815 140.862946,212.439468 
	C140.862946,215.017471 140.862717,216.979507 140.862976,218.941544 
	C140.865677,239.595306 140.914520,260.249176 140.861694,280.902802 
	C140.749542,324.760529 98.754402,355.199127 57.172367,341.568604 
	C53.095642,340.232239 49.102772,338.640045 45.070976,337.166595 
z"/>
<path fill="#060606" opacity="1.000000" stroke="none" 
	d="
M441.435120,304.517059 
	C444.288971,308.612732 446.931671,312.416077 450.206268,317.128845 
	C440.079559,317.128845 430.863068,317.248566 421.658142,316.976196 
	C420.516693,316.942444 419.245300,314.955170 418.358643,313.652252 
	C410.972382,302.798340 403.662323,291.892578 396.093475,280.652374 
	C391.236053,284.260468 387.302185,287.493622 387.920227,294.367462 
	C388.585815,301.770569 388.070648,309.279846 388.070648,316.915039 
	C378.947266,316.915039 370.337830,316.915039 361.522614,316.915039 
	C361.522614,279.759460 361.522614,242.841141 361.522614,205.587769 
	C370.236877,205.587769 378.786987,205.587769 387.825989,205.587769 
	C387.825989,222.379440 387.825989,238.937012 387.825989,256.963806 
	C394.466461,250.552582 400.552094,245.451965 405.674622,239.519714 
	C411.111084,233.223923 417.103424,230.219696 425.573090,231.199051 
	C431.956268,231.937119 438.493225,231.345047 444.396820,231.345047 
	C434.368744,242.133438 424.163147,253.112854 413.520630,264.562317 
	C422.405182,277.282166 431.814606,290.753448 441.435120,304.517059 
z"/>
<path fill="#050505" opacity="1.000000" stroke="none" 
	d="
M682.893250,288.111816 
	C681.091919,285.510010 679.481567,283.219971 677.837891,280.882538 
	C672.254639,284.277100 669.097168,288.271942 669.741821,295.137177 
	C670.404968,302.199982 669.889038,309.373444 669.889038,316.817810 
	C660.900085,316.817810 652.325256,316.817810 643.385437,316.817810 
	C643.385437,279.818665 643.385437,242.809631 643.385437,205.531494 
	C652.110168,205.531494 660.672607,205.531494 669.709167,205.531494 
	C669.709167,222.353348 669.709167,238.906250 669.709167,256.800385 
	C676.892334,249.882263 683.515808,244.155487 689.326782,237.697617 
	C693.868530,232.650284 698.798096,230.703156 705.495056,231.225281 
	C712.535217,231.774170 719.651428,231.348190 726.751160,231.348190 
	C716.174927,242.536407 705.865295,253.442612 695.286194,264.633850 
	C707.109070,281.553894 719.236877,298.910370 731.978394,317.145142 
	C721.977539,317.145142 713.206238,317.251923 704.443481,317.027008 
	C703.167664,316.994232 701.559814,315.635223 700.738159,314.451019 
	C694.762573,305.838318 688.948975,297.113159 682.893250,288.111816 
z"/>
<path fill="#050405" opacity="1.000000" stroke="none" 
	d="
M592.759705,316.591858 
	C585.871460,316.489960 578.983154,316.388062 571.361816,316.066528 
	C560.568115,313.185333 552.618896,307.194824 545.464844,299.928833 
	C545.436035,299.952423 545.503967,299.931458 545.490417,299.554565 
	C529.493896,275.910828 535.089722,246.775925 558.448181,232.655197 
	C562.384888,230.275375 566.902222,228.856247 571.151306,226.993225 
	C577.701965,226.818375 584.252563,226.643524 591.476135,226.759918 
	C599.613037,230.446945 607.836304,232.461899 613.533630,239.049164 
	C615.139282,240.905594 617.007263,242.535141 618.832397,244.497375 
	C618.909973,244.726028 619.270386,245.047440 619.260681,245.339172 
	C619.763367,246.171890 620.275696,246.712860 620.845825,247.474854 
	C620.903625,247.695892 621.220276,248.025330 621.230713,248.379456 
	C623.231140,254.140808 625.221069,259.548035 627.178345,265.299164 
	C627.236511,266.091461 627.327393,266.539825 627.305054,267.426331 
	C627.276611,270.558807 627.361206,273.253174 627.329346,276.296509 
	C627.213989,277.133240 627.215149,277.621063 627.013977,278.410187 
	C624.330444,285.136719 621.849304,291.561951 619.183594,298.152008 
	C618.999023,298.316833 618.825928,298.780487 618.529236,298.902252 
	C617.714844,299.939117 617.197205,300.854187 616.726440,301.792297 
	C616.773315,301.815277 616.752625,301.712891 616.491699,301.790649 
	C616.062378,302.175476 615.893921,302.482574 615.785645,302.818726 
	C615.845764,302.847778 615.775940,302.733917 615.516968,302.818542 
	C615.091248,303.212830 614.924500,303.522461 614.818237,303.832764 
	C614.878662,303.833435 614.781067,303.762115 614.452637,303.852570 
	C607.002686,308.159302 599.881226,312.375580 592.759705,316.591858 
M587.634460,250.390594 
	C574.750671,248.199860 564.577637,253.666473 560.936157,264.737335 
	C557.171509,276.182770 563.396484,288.602203 574.819824,292.436615 
	C586.296509,296.288910 598.796509,290.218201 602.692017,278.900238 
	C606.805359,266.949585 600.880981,255.252289 587.634460,250.390594 
z"/>
<path fill="#040404" opacity="1.000000" stroke="none" 
	d="
M454.991089,214.080841 
	C454.991089,211.110962 454.991089,208.626602 454.991089,205.872192 
	C483.415466,205.872192 511.505127,205.872192 540.159119,205.872192 
	C537.765259,213.336441 535.565308,220.603668 532.991455,227.735962 
	C532.647217,228.689972 530.424805,229.430862 529.049927,229.469070 
	C522.579041,229.648788 516.100464,229.549057 509.150146,229.549057 
	C509.150146,258.842743 509.150146,287.743225 509.150146,316.898376 
	C500.078461,316.898376 491.485229,316.898376 482.249023,316.898376 
	C482.249023,287.902161 482.249023,259.016144 482.249023,229.551300 
	C472.883545,229.551300 464.140167,229.551300 454.991089,229.551300 
	C454.991089,224.169037 454.991089,219.367691 454.991089,214.080841 
z"/>
<path fill="#040404" opacity="1.000000" stroke="none" 
	d="
M290.000031,290.000183 
	C289.999725,299.135223 289.999725,307.770233 289.999725,316.768677 
	C281.120697,316.768677 272.421173,316.768677 263.151123,316.768677 
	C263.151123,287.745972 263.151123,258.872192 263.151123,229.574280 
	C253.994781,229.574280 245.397507,229.574280 236.396912,229.574280 
	C236.396912,221.467255 236.396912,213.781754 236.396912,205.871338 
	C263.874451,205.871338 291.249084,205.871338 319.212677,205.871338 
	C316.866852,213.218170 314.800690,220.188141 312.313507,227.004486 
	C311.881165,228.189453 309.702118,229.379608 308.276764,229.447159 
	C302.471924,229.722260 296.646423,229.561722 290.000336,229.561722 
	C290.000336,249.719955 290.000336,269.610046 290.000031,290.000183 
z"/>
<path fill="#17E9E2" opacity="1.000000" stroke="none" 
	d="
M141.128021,152.487549 
	C132.990829,152.860687 125.038071,152.860687 116.315056,152.860687 
	C116.315056,155.531021 116.315208,157.459030 116.315025,159.387054 
	C116.310989,202.832336 116.384506,246.277832 116.265511,289.722809 
	C116.216408,307.649567 102.082291,320.530121 84.438255,319.032562 
	C77.175888,318.416107 71.079506,315.254639 66.039658,309.599670 
	C71.715309,309.306610 77.661583,310.253479 83.198402,309.148499 
	C96.820129,306.430084 105.347031,295.604309 105.395218,281.692230 
	C105.545250,238.379517 105.516441,195.066208 105.564842,151.753143 
	C105.573280,144.204498 105.590668,144.176758 112.982903,144.120895 
	C119.979340,144.068024 126.976303,144.065201 133.973007,144.070786 
	C141.435577,144.076752 141.779877,144.469864 141.128021,152.487549 
z"/>
<path fill="#050505" opacity="1.000000" stroke="none" 
	d="
M351.011444,303.989868 
	C351.011444,308.461731 351.011444,312.435303 351.011444,316.777222 
	C342.163086,316.777222 333.610443,316.777222 324.580688,316.777222 
	C324.580688,291.840759 324.580688,266.843201 324.580688,241.477829 
	C333.088440,241.477829 341.653229,241.477829 351.011444,241.477829 
	C351.011444,262.067444 351.011444,282.779510 351.011444,303.989868 
z"/>
<path fill="#DD1452" opacity="1.000000" stroke="none" 
	d="
M45.152588,337.471222 
	C49.102772,338.640045 53.095642,340.232239 57.172367,341.568604 
	C98.754402,355.199127 140.749542,324.760529 140.861694,280.902802 
	C140.914520,260.249176 140.865677,239.595306 140.862976,218.941544 
	C140.862717,216.979507 140.862946,215.017471 140.862946,212.439468 
	C147.519577,215.613815 153.209198,219.110001 159.385803,221.077576 
	C167.412018,223.634338 175.803162,225.083801 184.082977,226.787552 
	C187.434418,227.477203 188.887207,225.708969 188.863022,222.253189 
	C188.814178,215.266602 189.016754,208.278259 189.335266,200.910217 
	C192.508713,200.692520 195.462524,200.855240 199.009430,201.050629 
	C199.009430,212.043930 199.124191,222.651230 198.794540,233.244705 
	C198.767792,234.104950 195.672867,235.620026 194.048874,235.562103 
	C180.470581,235.077988 167.968811,230.834076 156.266266,224.062988 
	C154.876175,223.258698 153.455887,222.506638 151.050995,221.179138 
	C151.050995,223.813446 151.051102,225.543610 151.050980,227.273773 
	C151.049316,248.733231 151.335831,270.197754 150.958084,291.650604 
	C150.634964,310.000092 143.481522,325.514374 129.294754,337.503723 
	C129.724335,335.823395 130.356247,334.320038 131.231384,332.974976 
	C135.881805,325.827271 141.300995,319.067627 145.037201,311.476288 
	C147.571243,306.327576 148.746750,300.047058 148.845520,294.244019 
	C149.250793,270.430847 148.982269,246.606674 149.036972,222.786713 
	C149.045502,219.068787 147.558731,217.258820 143.240128,217.416504 
	C143.153641,219.336960 143.006149,221.110535 143.004211,222.884262 
	C142.981125,244.039169 143.483551,265.212494 142.712234,286.339508 
	C142.423843,294.239105 140.406433,302.625458 136.967529,309.718475 
	C132.840576,318.230621 127.590424,326.620178 119.288589,332.163605 
	C113.827248,335.810394 108.621895,340.231506 102.627632,342.597931 
	C93.575562,346.171478 83.932396,348.170471 73.962814,347.038208 
	C72.571846,346.880249 71.116585,347.288422 69.691078,347.434540 
	C87.410667,355.152161 118.344757,348.989471 124.025879,337.574463 
	C125.704857,337.712280 127.347122,337.847107 128.989380,337.981903 
	C118.204597,348.353546 105.038582,353.121979 90.367882,353.807404 
	C73.221031,354.608490 58.005123,349.519897 45.152588,337.471222 
z"/>
<path fill="#E80E51" opacity="1.000000" stroke="none" 
	d="
M61.757328,304.458923 
	C54.028988,302.033081 50.784889,295.382629 49.074532,288.353760 
	C44.232555,268.455170 60.570610,250.346832 80.952667,252.795029 
	C84.951286,253.275330 85.977135,252.093735 85.926201,248.459106 
	C85.830948,241.660553 85.965271,234.858795 86.255875,227.500046 
	C86.507668,226.941727 86.884689,226.701218 86.884689,226.701218 
	C95.832397,227.245987 95.854088,227.245911 95.886757,236.443512 
	C95.916756,244.888748 95.893135,253.334137 95.893135,262.037964 
	C94.497726,262.037964 93.538628,262.135712 92.604691,262.023682 
	C68.567436,259.140717 52.593266,279.122223 60.830536,301.791901 
	C61.114021,302.572083 61.448345,303.333801 61.757328,304.458923 
z"/>
<path fill="#070707" opacity="1.000000" stroke="none" 
	d="
M334.062683,231.999817 
	C325.398407,228.402985 321.900726,220.755112 325.254974,213.502487 
	C328.507233,206.470398 336.852295,203.635132 343.882843,207.173569 
	C349.405182,209.952957 352.403137,217.012100 350.550385,222.873398 
	C348.330658,229.895630 342.773376,233.066727 334.062683,231.999817 
z"/>
<path fill="#3DD5CF" opacity="1.000000" stroke="none" 
	d="
M570.814209,226.794647 
	C566.902222,228.856247 562.384888,230.275375 558.448181,232.655197 
	C535.089722,246.775925 529.493896,275.910828 545.134521,299.446594 
	C544.044983,299.074585 543.079041,298.569641 542.583435,297.772308 
	C534.520447,284.801758 532.768555,270.972992 537.342224,256.422852 
	C538.663147,252.220490 540.468079,248.170242 542.362793,244.001465 
	C543.348877,243.330826 544.023315,242.709000 544.697754,242.087158 
	C544.316467,241.789795 543.935242,241.492432 543.553955,241.195068 
	C543.018311,242.112350 542.482666,243.029648 541.598999,243.995331 
	C539.866699,245.394272 538.032959,246.506409 537.170105,248.133469 
	C530.855652,260.040192 527.632385,272.255066 532.844421,285.658173 
	C535.761658,293.160156 540.119934,299.344238 546.716675,305.474213 
	C546.145569,302.873505 545.819641,301.389374 545.493652,299.905243 
	C552.618896,307.194824 560.568115,313.185333 570.962524,316.052399 
	C561.177612,318.196838 553.183228,313.384521 545.769287,307.671906 
	C524.367493,291.181366 522.908997,259.797058 540.182129,240.276505 
	C547.956787,231.490265 558.123901,226.157745 570.814209,226.794647 
z"/>
<path fill="#8CE5E2" opacity="1.000000" stroke="none" 
	d="
M86.936012,226.318970 
	C86.884689,226.701218 86.507668,226.941727 86.308228,227.042175 
	C85.660568,227.032608 85.212349,226.922607 84.515945,226.374695 
	C85.415283,222.458160 86.168678,219.151672 80.810715,218.885101 
	C56.440201,217.672653 37.564213,227.749603 24.223501,247.709763 
	C12.778826,264.833099 11.013220,283.686615 17.920635,302.995850 
	C20.786758,311.007935 23.966145,319.324158 32.660896,323.361908 
	C34.922707,326.348419 37.184513,329.334930 39.528542,332.618774 
	C38.522217,332.842102 36.984089,333.206757 36.416145,332.624695 
	C31.817028,327.911285 26.816319,323.425079 23.098383,318.064789 
	C19.666206,313.116455 17.528608,307.234558 15.069943,301.654083 
	C9.986838,290.116791 10.872473,277.828857 13.590367,266.343536 
	C18.029663,247.583817 29.015982,233.071106 46.658508,223.897491 
	C57.147938,218.443253 68.094719,216.032364 79.728600,216.094711 
	C87.642128,216.137146 89.252106,218.419968 86.936012,226.318970 
z"/>
<path fill="#F10951" opacity="1.000000" stroke="none" 
	d="
M621.220276,248.025330 
	C621.220276,248.025330 620.903625,247.695892 620.883423,247.162567 
	C620.332275,246.101974 619.801331,245.574692 619.270386,245.047424 
	C619.270386,245.047440 618.909973,244.726028 618.873169,244.142578 
	C618.351807,242.253082 617.867371,240.947067 617.384399,239.645279 
	C618.025696,239.383255 618.342468,239.128891 618.613220,239.170898 
	C619.084778,239.244003 619.693359,239.367386 619.958740,239.698608 
	C625.552002,246.680191 631.311646,253.543442 632.169556,263.063629 
	C632.346069,265.022430 633.599243,266.884247 634.356201,268.790771 
	C634.479431,269.962555 634.602600,271.134338 634.291809,272.851624 
	C633.617676,273.816284 633.176636,274.230774 633.166748,274.655273 
	C632.932312,284.747314 628.119507,292.996613 622.418213,300.790894 
	C620.593567,303.285431 617.979431,305.202454 614.781067,308.299011 
	C614.781067,305.669006 614.781067,304.715546 614.781067,303.762115 
	C614.781067,303.762115 614.878662,303.833435 615.087402,303.759949 
	C615.456116,303.368958 615.616028,303.051453 615.775940,302.733917 
	C615.775940,302.733917 615.845764,302.847778 616.056458,302.753723 
	C616.428955,302.344055 616.590820,302.028473 616.752686,301.712891 
	C616.752625,301.712891 616.773315,301.815277 617.073730,301.732300 
	C617.858154,300.693024 618.342041,299.736755 618.825928,298.780487 
	C618.825928,298.780487 618.999023,298.316833 619.503967,298.102570 
	C622.142456,294.076538 624.646790,290.414917 626.273010,286.397797 
	C627.278320,283.914490 626.947388,280.890259 627.216309,278.108887 
	C627.215149,277.621063 627.213989,277.133240 627.656128,276.163147 
	C627.872375,272.783325 627.645325,269.885773 627.418213,266.988220 
	C627.327393,266.539825 627.236511,266.091461 627.397217,265.013062 
	C627.233948,258.251373 626.644043,252.188522 621.220276,248.025330 
z"/>
<path fill="#C52455" opacity="1.000000" stroke="none" 
	d="
M634.476685,268.411072 
	C633.599243,266.884247 632.346069,265.022430 632.169556,263.063629 
	C631.311646,253.543442 625.552002,246.680191 619.958740,239.698608 
	C619.693359,239.367386 619.084778,239.244003 618.613220,239.170898 
	C618.342468,239.128891 618.025696,239.383255 617.384399,239.645279 
	C617.867371,240.947067 618.351807,242.253082 618.795593,243.913925 
	C617.007263,242.535141 615.139282,240.905594 613.533630,239.049164 
	C607.836304,232.461899 599.613037,230.446945 591.920166,226.821671 
	C609.098633,225.665375 627.331055,239.659561 632.771912,258.287384 
	C633.693909,261.443817 634.004333,264.778870 634.476685,268.411072 
M615.087708,237.248550 
	C615.087708,237.248550 615.414001,237.241684 615.414001,237.241684 
	C615.414001,237.241684 615.031494,236.975281 614.959473,236.439667 
	C614.659729,236.141953 614.359924,235.844238 614.060181,235.546539 
	C613.891602,235.740799 613.723022,235.935043 613.554443,236.129288 
	C614.028870,236.429382 614.503235,236.729492 615.087708,237.248550 
z"/>
<path fill="#DD1452" opacity="1.000000" stroke="none" 
	d="
M159.123077,180.522705 
	C154.781784,176.093231 149.892700,171.655670 146.234940,166.366592 
	C143.892334,162.979202 143.366837,158.335175 142.095001,153.891571 
	C144.916824,153.368774 147.670349,153.208878 149.003326,153.131485 
	C152.590118,162.733887 155.843552,171.443863 159.123077,180.522705 
z"/>
<path fill="#C52455" opacity="1.000000" stroke="none" 
	d="
M614.452637,303.852570 
	C614.781067,304.715546 614.781067,305.669006 614.781067,308.299011 
	C617.979431,305.202454 620.593567,303.285431 622.418213,300.790894 
	C628.119507,292.996613 632.932312,284.747314 633.166748,274.655273 
	C633.176636,274.230774 633.617676,273.816284 634.179199,273.284241 
	C635.158691,295.068268 616.218445,315.302002 593.186523,316.721436 
	C599.881226,312.375580 607.002686,308.159302 614.452637,303.852570 
z"/>
<path fill="#3DD5CF" opacity="1.000000" stroke="none" 
	d="
M188.778076,199.448730 
	C179.321869,198.131927 171.600800,193.575714 164.955048,186.580811 
	C172.157516,188.107971 179.477295,189.842773 186.731979,191.816772 
	C191.065292,192.995880 189.516083,196.272980 188.778076,199.448730 
z"/>
<path fill="#DD1452" opacity="1.000000" stroke="none" 
	d="
M160.366119,182.037109 
	C160.060791,182.294220 159.845795,182.186707 159.715683,181.716064 
	C160.018356,181.457123 160.236984,181.563660 160.366119,182.037109 
z"/>
<path fill="#11E8E1" opacity="1.000000" stroke="none" 
	d="
M32.592903,323.002441 
	C23.966145,319.324158 20.786758,311.007935 17.920635,302.995850 
	C11.013220,283.686615 12.778826,264.833099 24.223501,247.709763 
	C37.564213,227.749603 56.440201,217.672653 80.810715,218.885101 
	C86.168678,219.151672 85.415283,222.458160 84.176422,226.296265 
	C66.311745,228.311020 51.061569,235.115326 39.226704,248.778564 
	C21.273909,269.504913 18.676329,298.371185 32.592903,323.002441 
z"/>
<path fill="#D6D6D6" opacity="1.000000" stroke="none" 
	d="
M588.022095,250.545700 
	C600.880981,255.252289 606.805359,266.949585 602.692017,278.900238 
	C598.796509,290.218201 586.296509,296.288910 574.819824,292.436615 
	C563.396484,288.602203 557.171509,276.182770 560.936157,264.737335 
	C564.577637,253.666473 574.750671,248.199860 588.022095,250.545700 
z"/>
<path fill="#C52455" opacity="1.000000" stroke="none" 
	d="
M627.013977,278.410187 
	C626.947388,280.890259 627.278320,283.914490 626.273010,286.397797 
	C624.646790,290.414917 622.142456,294.076538 619.688538,297.937744 
	C621.849304,291.561951 624.330444,285.136719 627.013977,278.410187 
z"/>
<path fill="#C52455" opacity="1.000000" stroke="none" 
	d="
M621.230713,248.379456 
	C626.644043,252.188522 627.233948,258.251373 627.429871,264.669159 
	C625.221069,259.548035 623.231140,254.140808 621.230713,248.379456 
z"/>
<path fill="#C52455" opacity="1.000000" stroke="none" 
	d="
M627.305054,267.426331 
	C627.645325,269.885773 627.872375,272.783325 627.772705,275.814209 
	C627.361206,273.253174 627.276611,270.558807 627.305054,267.426331 
z"/>
<path fill="#C52455" opacity="1.000000" stroke="none" 
	d="
M618.529236,298.902252 
	C618.342041,299.736755 617.858154,300.693024 617.026855,301.709290 
	C617.197205,300.854187 617.714844,299.939117 618.529236,298.902252 
z"/>
<path fill="#C52455" opacity="1.000000" stroke="none" 
	d="
M619.260681,245.339172 
	C619.801331,245.574692 620.332275,246.101974 620.825623,246.941544 
	C620.275696,246.712860 619.763367,246.171890 619.260681,245.339172 
z"/>
<path fill="#C52455" opacity="1.000000" stroke="none" 
	d="
M616.491760,301.790649 
	C616.590820,302.028473 616.428955,302.344055 615.996338,302.724670 
	C615.893921,302.482574 616.062378,302.175476 616.491760,301.790649 
z"/>
<path fill="#C52455" opacity="1.000000" stroke="none" 
	d="
M615.516968,302.818542 
	C615.616028,303.051453 615.456116,303.368958 615.026978,303.759277 
	C614.924500,303.522461 615.091248,303.212830 615.516968,302.818542 
z"/>
<path fill="#FC024E" opacity="1.000000" stroke="none" 
	d="
M128.994568,337.990814 
	C127.347122,337.847107 125.704857,337.712280 124.025879,337.574463 
	C118.344757,348.989471 87.410667,355.152161 69.691078,347.434540 
	C71.116585,347.288422 72.571846,346.880249 73.962814,347.038208 
	C83.932396,348.170471 93.575562,346.171478 102.627632,342.597931 
	C108.621895,340.231506 113.827248,335.810394 119.288589,332.163605 
	C127.590424,326.620178 132.840576,318.230621 136.967529,309.718475 
	C140.406433,302.625458 142.423843,294.239105 142.712234,286.339508 
	C143.483551,265.212494 142.981125,244.039169 143.004211,222.884262 
	C143.006149,221.110535 143.153641,219.336960 143.240128,217.416504 
	C147.558731,217.258820 149.045502,219.068787 149.036972,222.786713 
	C148.982269,246.606674 149.250793,270.430847 148.845520,294.244019 
	C148.746750,300.047058 147.571243,306.327576 145.037201,311.476288 
	C141.300995,319.067627 135.881805,325.827271 131.231384,332.974976 
	C130.356247,334.320038 129.724335,335.823395 128.981140,337.621765 
	C128.982086,337.989838 128.999771,337.999725 128.994568,337.990814 
z"/>
<path fill="#0EEDE5" opacity="1.000000" stroke="none" 
	d="
M542.051086,244.050262 
	C540.468079,248.170242 538.663147,252.220490 537.342224,256.422852 
	C532.768555,270.972992 534.520447,284.801758 542.583435,297.772308 
	C543.079041,298.569641 544.044983,299.074585 545.148071,299.823486 
	C545.503967,299.931458 545.436035,299.952423 545.464844,299.928833 
	C545.819641,301.389374 546.145569,302.873505 546.716675,305.474213 
	C540.119934,299.344238 535.761658,293.160156 532.844421,285.658173 
	C527.632385,272.255066 530.855652,260.040192 537.170105,248.133469 
	C538.032959,246.506409 539.866699,245.394272 541.624939,244.021240 
	C541.998901,243.998734 542.051086,244.050262 542.051086,244.050262 
z"/>
<path fill="#0EEDE5" opacity="1.000000" stroke="none" 
	d="
M541.972961,243.972839 
	C542.482666,243.029648 543.018311,242.112350 543.553955,241.195068 
	C543.935242,241.492432 544.316467,241.789795 544.697754,242.087158 
	C544.023315,242.709000 543.348877,243.330826 542.362793,244.001465 
	C542.051086,244.050262 541.998901,243.998734 541.972961,243.972839 
z"/>
<path fill="#F10951" opacity="1.000000" stroke="none" 
	d="
M614.977661,237.029587 
	C614.503235,236.729492 614.028870,236.429382 613.554443,236.129288 
	C613.723022,235.935043 613.891602,235.740799 614.060181,235.546539 
	C614.359924,235.844238 614.659729,236.141953 614.980713,236.719788 
	C615.001953,236.999908 614.977661,237.029587 614.977661,237.029587 
z"/>
<path fill="#F10951" opacity="1.000000" stroke="none" 
	d="
M615.016724,236.987595 
	C615.031494,236.975281 615.414001,237.241684 615.414001,237.241684 
	C615.414001,237.241684 615.087708,237.248550 615.032715,237.139069 
	C614.977661,237.029587 615.001953,236.999908 615.016724,236.987595 
z"/>
</svg>